<svg xmlns="http://www.w3.org/2000/svg" version="1.1" xmlns:xlink="http://www.w3.org/1999/xlink" width="512" height="512" x="0" y="0" viewBox="0 0 512 512" style="enable-background:new 0 0 512 512" xml:space="preserve" class=""><g><g fill-rule="evenodd"><path fill="#f9c795" d="M138.889 180.717c-.977-13.55.172-26.319.172-26.319-2.502-2.292-6.889-6.391-11.763-9.925-7.888-5.721-17.053-9.965-21.57-2.685-4.061 6.548 1.991 21.489 3.119 28.537 3.32 20.761 6.198 39.302 30.041 10.392z" opacity="1" data-original="#f9c795"></path><path fill="#edb47c" d="M128.203 153.936a6.72 6.72 0 1 0-12.996 3.42c.991 3.728 1.682 6.866 2.243 10.025.56 3.156.978 6.287 1.427 10.023a6.729 6.729 0 0 0 13.364-1.578c-.481-4.006-.929-7.365-1.532-10.76-.602-3.391-1.373-6.866-2.506-11.13z" opacity="1" data-original="#edb47c"></path><path fill="#f9c795" d="M289.445 180.717c.977-13.55-.172-26.319-.172-26.319 2.502-2.292 6.889-6.391 11.762-9.925 7.889-5.721 17.054-9.965 21.57-2.685 4.061 6.548-1.992 21.489-3.119 28.537-3.32 20.761-6.198 39.302-30.041 10.392z" opacity="1" data-original="#f9c795"></path><path fill="#edb47c" d="M300.131 153.936a6.72 6.72 0 1 1 12.996 3.42c-.991 3.728-1.682 6.866-2.243 10.025-.56 3.156-.978 6.287-1.427 10.023a6.729 6.729 0 0 1-13.364-1.578c.481-4.006.929-7.365 1.532-10.76.602-3.391 1.373-6.866 2.506-11.13z" opacity="1" data-original="#edb47c"></path><path fill="#edbb8a" d="m214.167 343.995-53.371-47.586c5.431-12.773 8.201-39.107 8.312-79.002h90.118c.111 39.895 2.881 66.229 8.312 79.002z" opacity="1" data-original="#edbb8a"></path><path fill="#f9c795" d="m214.167 343.996-35.352-31.52c4.024-14.255 6.083-38.524 6.178-72.806h74.618c.939 27.602 3.581 46.516 7.928 56.74z" opacity="1" data-original="#f9c795"></path><path fill="#f2cb9f" d="M127.3 144.472c2.544 28.471 10.519 74.981 29.579 96.037 7.387 8.161 29.045 31.507 40.169 35.88 7.05 2.771 9.643.269 17.119.189 7.477.081 10.07 2.583 17.12-.189 11.125-4.374 32.782-27.719 40.169-35.88 19.06-21.057 27.035-67.567 29.579-96.037 0-62.398-43.461-90.075-86.868-90.427-43.406.352-86.867 28.028-86.867 90.427z" opacity="1" data-original="#f2cb9f"></path><path fill="#fdd7ad" d="M172.593 256.983c8.533 8.418 18.173 16.937 24.454 19.407 7.05 2.771 9.643.269 17.119.189 7.477.081 10.07 2.583 17.12-.189 11.125-4.374 32.782-27.719 40.169-35.88 19.06-21.057 27.035-67.567 29.579-96.037 0-41.381-19.117-67.486-44.653-80.483-8.198-2.372-16.721-3.57-25.244-3.644-43.407.373-86.868 29.789-86.868 96.108 2.488 29.584 10.168 77.492 28.323 100.529z" opacity="1" data-original="#fdd7ad"></path><path fill="#4f5d99" d="M417.211 439.631v-36.126c0-55.956-48.059-65.763-117.83-94.619l-28.106-22.285-57.108 50.917-57.108-50.917-28.105 22.285c-69.771 28.856-117.83 38.663-117.83 94.619v36.126z" opacity="1" data-original="#4f5d99"></path><path fill="#45518a" d="M337.85 324.208a3098.658 3098.658 0 0 0-9.48-3.737l-49.629 119.16h11.036l48.073-115.424z" opacity="1" data-original="#45518a"></path><path fill="#e7ebf5" d="m149.594 439.631-49.629-119.16 28.988-11.584 28.106-22.286 57.108 50.918 57.108-50.918 28.106 22.286 28.989 11.584-49.63 119.16h-64.573z" opacity="1" data-original="#e7ebf5" class=""></path><path fill="#6a75ad" d="m214.168 337.519 27.133 27.872-12.188 18.494 6.685 55.746h-43.26l6.685-55.746-12.188-18.494z" opacity="1" data-original="#6a75ad"></path><path fill="#7986bf" d="m214.168 337.519 27.133 27.872-12.188 18.494 6.685 55.746h-32.13l5.297-55.746-12.188-18.494z" opacity="1" data-original="#7986bf"></path><path fill="#45518a" d="m214.167 337.519 27.134 27.872-12.188 18.494h-29.892l-12.187-18.494z" opacity="1" data-original="#45518a"></path><path fill="#4f5d99" d="m219.039 342.523 22.262 22.868-12.188 18.494h-20.148l-12.188-18.494z" opacity="1" data-original="#4f5d99"></path><path fill="#d6dbe8" d="m217.091 340.522-43.937 45.133-44.201-76.768 44.882 70.062 40.332-41.43z" opacity="1" data-original="#d6dbe8"></path><path fill="#ffffff" d="m214.167 337.519-40.332 41.43-44.881-70.062 28.105-22.286zM214.168 337.519l40.333 41.43 44.88-70.062-28.106-22.286z" opacity="1" data-original="#ffffff"></path><path fill="#45518a" d="M90.485 324.208c3.091-1.226 6.252-2.469 9.48-3.737l49.629 119.16h-11.037L90.484 324.207z" opacity="1" data-original="#45518a"></path><path fill="#c7cee0" d="m214.167 343.525 41.014 42.13 44.201-76.768-44.882 70.062-40.332-41.43z" opacity="1" data-original="#c7cee0"></path><path fill="#2c3033" d="M127.18 144.557C76.642 18.231 243.355-1.087 265.749 46.344c15.757-2.457 85.227-19.233 35.317 98.213-.265-8.282-3.903-23.221-12.066-33.548-.19 1.979-1.596 8.18-9.572 15.652-2.502-14.274-9.898-28.78-19.941-30.78-14.241 35.958-95.869-20.433-132.306 48.676z" opacity="1" data-original="#2c3033"></path><path fill="#e68207" d="m448.377 359.233 6.378 130.135-34.997-29.18-34.998 29.18 6.379-130.135z" opacity="1" data-original="#e68207"></path><path fill="#fda02f" d="m448.377 359.233 5.746 117.238-26.947-22.468-7.418 6.185v-.001l-24.463 20.398 5.948-121.352z" opacity="1" data-original="#fda02f"></path><path fill="#f9ac00" d="M437.374 252.038c4.738 6.672 12.382 9.838 20.45 8.471 7.501-1.272 13.773.099 19.293 5.619 5.522 5.521 6.889 11.79 5.619 19.293-1.367 8.068 1.799 15.712 8.47 20.45 6.204 4.406 9.669 9.808 9.669 17.616s-3.466 13.21-9.669 17.616c-6.672 4.739-9.838 12.382-8.471 20.45 1.272 7.501-.099 13.773-5.619 19.293-5.521 5.522-11.79 6.889-19.293 5.62-8.068-1.367-15.712 1.799-20.45 8.47-4.406 6.203-9.808 9.669-17.616 9.669s-13.21-3.466-17.616-9.669c-4.739-6.672-12.382-9.838-20.45-8.471-7.501 1.272-13.773-.099-19.293-5.619-5.522-5.521-6.889-11.79-5.62-19.293 1.367-8.068-1.799-15.711-8.47-20.45-6.203-4.406-9.669-9.808-9.669-17.616s3.466-13.21 9.669-17.616c6.672-4.738 9.838-12.382 8.471-20.45-1.272-7.501.099-13.773 5.619-19.293 5.521-5.522 11.79-6.889 19.293-5.619 8.068 1.367 15.711-1.799 20.45-8.471 4.406-6.203 9.808-9.669 17.616-9.669s13.21 3.466 17.616 9.669z" opacity="1" data-original="#f9ac00"></path><path fill="#fdc72e" d="M437.373 252.038c4.739 6.672 12.382 9.838 20.45 8.471 7.501-1.272 13.773.099 19.293 5.619 5.522 5.521 6.889 11.79 5.619 19.293-1.367 8.068 1.799 15.712 8.471 20.45 6.203 4.406 9.669 9.808 9.669 17.616s-3.466 13.21-9.669 17.616c-6.672 4.739-9.838 12.382-8.471 20.451 1.272 7.5-.099 13.773-5.619 19.293-5.521 5.522-11.79 6.889-19.293 5.619-8.068-1.367-15.712 1.799-20.45 8.471-3.493 4.918-7.612 8.115-13.059 9.229-5.447-1.114-9.566-4.311-13.059-9.229-4.739-6.672-12.382-9.838-20.45-8.471-.346.059-.69.111-1.03.159-2.577-.563-5.305-.629-8.084-.159l-.105.017c-3.65-.752-6.98-2.543-10.074-5.636-5.522-5.521-6.89-11.79-5.62-19.293 1.367-8.069-1.799-15.712-8.47-20.451-6.203-4.406-9.669-9.808-9.669-17.616s3.466-13.21 9.669-17.616c6.672-4.739 9.838-12.382 8.471-20.45-1.272-7.501.099-13.773 5.619-19.293 3.095-3.095 6.425-4.884 10.075-5.636l.103.017c2.779.471 5.507.404 8.083-.159.341.047.685.1 1.031.159 8.069 1.367 15.712-1.799 20.45-8.471 3.493-4.917 7.612-8.114 13.059-9.229 5.447 1.114 9.566 4.311 13.059 9.229z" opacity="1" data-original="#fdc72e"></path></g><circle cx="427.007" cy="323.486" r="26.393" fill="#f9ac00" opacity="1" data-original="#f9ac00"></circle><circle cx="419.758" cy="323.486" r="26.393" fill="#ffffff" opacity="1" data-original="#ffffff"></circle></g></svg>