<svg xmlns="http://www.w3.org/2000/svg" version="1.1" xmlns:xlink="http://www.w3.org/1999/xlink" width="16" height="16" x="0" y="0" viewBox="0 0 32 32" style="enable-background:new 0 0 512 512" xml:space="preserve" fill-rule="evenodd" class=""><g><path d="M16.818 2c-3.863 0-7 3.137-7 7s3.137 7 7 7c3.864 0 7-3.137 7-7s-3.136-7-7-7zm0 2c2.76 0 5 2.24 5 5s-2.24 5-5 5c-2.759 0-5-2.24-5-5s2.241-5 5-5zM4.818 28H16a1 1 0 0 1 0 2H3.818a1 1 0 0 1-1-1v-2a9 9 0 0 1 9-9H16a1 1 0 0 1 0 2h-4.182a7 7 0 0 0-7 7zM25.049 28.612l-2.393 1.621a1 1 0 0 1-1.561-.828V22.67a1 1 0 0 1 1.748-.664 2.946 2.946 0 0 0 4.414 0 1 1 0 0 1 1.748.664v6.735a.999.999 0 0 1-1.56.828zm-1.954-4.014v2.922l1.394-.943a1 1 0 0 1 1.121-.001l1.395.945v-2.923c-.599.259-1.261.402-1.955.402s-1.355-.143-1.955-.402z" fill="#000000" opacity="1" data-original="#000000" class=""></path><path d="M25.05 15.101a4.952 4.952 0 0 0-4.949 4.949A4.952 4.952 0 0 0 25.05 25 4.952 4.952 0 0 0 30 20.05a4.952 4.952 0 0 0-4.95-4.949zm0 2a2.95 2.95 0 0 1 0 5.899 2.95 2.95 0 0 1 0-5.899z" fill="#000000" opacity="1" data-original="#000000" class=""></path></g></svg>