<svg xmlns="http://www.w3.org/2000/svg" version="1.1" xmlns:xlink="http://www.w3.org/1999/xlink" width="16" height="16" x="0" y="0" viewBox="0 0 32 32" style="enable-background:new 0 0 512 512" xml:space="preserve" class=""><g><path d="M13.99 24.93H4.78a1.887 1.887 0 0 1-1.88-1.89V10.995h23.86v.975a.9.9 0 0 0 1.8 0V6.62a3.685 3.685 0 0 0-3.681-3.681H4.78A3.685 3.685 0 0 0 1.1 6.62v16.42a3.69 3.69 0 0 0 3.681 3.69h9.21a.9.9 0 1 0-.001-1.8zM4.78 4.74h20.1c1.037 0 1.88.843 1.88 1.88v2.574H2.9V6.62c0-1.037.843-1.88 1.88-1.88z" fill="#000000" opacity="1" data-original="#000000" class=""></path><circle cx="5.933" cy="6.964" r=".792" fill="#000000" opacity="1" data-original="#000000" class=""></circle><circle cx="8.724" cy="6.964" r=".792" fill="#000000" opacity="1" data-original="#000000" class=""></circle><circle cx="11.515" cy="6.964" r=".792" fill="#000000" opacity="1" data-original="#000000" class=""></circle><path d="M29.944 15.523c-1.232-1.234-3.383-1.233-4.615-.001l-7.979 7.979a1.74 1.74 0 0 0-.486.943l-.437 2.586a1.745 1.745 0 0 0 2.007 2.01l2.589-.437c.36-.062.687-.23.941-.486l7.979-7.979c.616-.616.955-1.437.955-2.308s-.337-1.69-.954-2.307zm-9.22 11.305-2.521.502.421-2.556 5.719-5.719 2.071 2.071zm7.947-7.964-.985.987-2.07-2.07.987-.987c.276-.276.644-.429 1.034-.429s.758.152 1.034.429v.001c.57.571.57 1.499 0 2.069z" fill="#000000" opacity="1" data-original="#000000" class=""></path></g></svg>