<svg xmlns="http://www.w3.org/2000/svg" version="1.1" xmlns:xlink="http://www.w3.org/1999/xlink" width="512" height="512" x="0" y="0" viewBox="0 0 32 32" style="enable-background:new 0 0 512 512" xml:space="preserve" class=""><g><path d="M16 25.069H5.21a2.312 2.312 0 0 1-2.31-2.31V8.02a2.312 2.312 0 0 1 2.31-2.31h2.172v.544a.9.9 0 0 0 1.8 0V5.71h10.764v.544a.9.9 0 0 0 1.8 0V5.71h2.164a2.313 2.313 0 0 1 2.31 2.31v6.43a.9.9 0 0 0 1.8 0V8.02a4.115 4.115 0 0 0-4.11-4.11h-2.164v-.46a.9.9 0 0 0-1.8 0v.46H9.182v-.46a.9.9 0 0 0-1.8 0v.46H5.21A4.115 4.115 0 0 0 1.1 8.02v14.74a4.114 4.114 0 0 0 4.11 4.11H16a.9.9 0 0 0 0-1.801z" fill="#000000" opacity="1" data-original="#000000" class=""></path><path d="M8.094 12.244a1.039 1.039 0 1 0 0 2.078 1.039 1.039 0 0 0 0-2.078zM14.563 12.244a1.039 1.039 0 1 0 0 2.078 1.039 1.039 0 0 0 0-2.078zM19.992 13.283a1.039 1.039 0 1 0 2.078 0 1.039 1.039 0 0 0-2.078 0zM8.094 17.905a1.039 1.039 0 1 0 0 2.078 1.039 1.039 0 0 0 0-2.078zM14.563 17.905a1.039 1.039 0 1 0 0 2.078 1.039 1.039 0 0 0 0-2.078zM24.507 16.665a6.401 6.401 0 0 0-6.394 6.393c0 3.524 2.868 6.393 6.394 6.393s6.394-2.868 6.394-6.393a6.401 6.401 0 0 0-6.394-6.393zm0 10.984c-2.532 0-4.593-2.06-4.593-4.592s2.061-4.593 4.593-4.593 4.593 2.061 4.593 4.593-2.061 4.592-4.593 4.592z" fill="#000000" opacity="1" data-original="#000000" class=""></path><path d="m25.811 21.421-1.972 1.589-.491-.627a.9.9 0 1 0-1.416 1.112l1.054 1.344a.898.898 0 0 0 1.272.146l2.682-2.16a.9.9 0 0 0-1.129-1.404z" fill="#000000" opacity="1" data-original="#000000" class=""></path></g></svg>