<svg xmlns="http://www.w3.org/2000/svg" version="1.1" xmlns:xlink="http://www.w3.org/1999/xlink" width="512" height="512" x="0" y="0" viewBox="0 0 50 50" style="enable-background:new 0 0 512 512" xml:space="preserve" class=""><g><linearGradient id="a" x1="25.006" x2="25.006" y1="4.167" y2="45.845" gradientUnits="userSpaceOnUse"><stop offset="0" stop-color="#f12711"></stop><stop offset="1" stop-color="#f5ae19"></stop></linearGradient><path fill="url(#a)" d="M29.167 25h-12.5a2.083 2.083 0 1 0 0 4.167h12.5a2.083 2.083 0 0 0 0-4.167zm11.27 14.583 2.709-2.687a2.092 2.092 0 0 0-2.959-2.959L37.5 36.647l-2.688-2.709a2.092 2.092 0 1 0-2.958 2.959l2.709 2.687-2.709 2.688a2.082 2.082 0 0 0 0 2.958 2.083 2.083 0 0 0 2.959 0l2.687-2.708 2.688 2.708a2.083 2.083 0 0 0 2.958 0 2.084 2.084 0 0 0 0-2.958zM25 41.667H12.5a2.083 2.083 0 0 1-2.083-2.084V10.417A2.083 2.083 0 0 1 12.5 8.333h10.417v6.25a6.25 6.25 0 0 0 6.25 6.25h6.25v6.25a2.083 2.083 0 0 0 4.166 0v-8.458a2.73 2.73 0 0 0-.125-.563v-.187a2.226 2.226 0 0 0-.395-.583l-12.5-12.5a2.229 2.229 0 0 0-.584-.396.605.605 0 0 0-.208 0 2.291 2.291 0 0 0-.646-.23H12.5a6.25 6.25 0 0 0-6.25 6.25v29.167a6.25 6.25 0 0 0 6.25 6.25H25a2.083 2.083 0 0 0 0-4.166zm2.083-30.396 5.396 5.396h-3.312a2.083 2.083 0 0 1-2.084-2.084zm-10.416 5.396a2.083 2.083 0 1 0 0 4.166h2.083a2.083 2.083 0 0 0 0-4.166zM25 33.333h-8.333a2.083 2.083 0 1 0 0 4.167H25a2.083 2.083 0 0 0 0-4.167z" opacity="1" data-original="url(#a)"></path></g></svg>