<svg xmlns="http://www.w3.org/2000/svg" version="1.1" xmlns:xlink="http://www.w3.org/1999/xlink" width="512" height="512" x="0" y="0" viewBox="0 0 48 48" style="enable-background:new 0 0 512 512" xml:space="preserve" fill-rule="evenodd"><g><path d="M46.216 12.186a4.002 4.002 0 0 0-4.001-4.002H17.203a4.002 4.002 0 0 0 0 8.004h25.012a4.002 4.002 0 0 0 4.001-4.002zm-2 0a2 2 0 0 1-2.001 2.001H17.203a2 2 0 0 1 0-4.002h25.012a2 2 0 0 1 2 2.001zM46.216 24.179a4.002 4.002 0 0 0-4.001-4.002H17.203a4.002 4.002 0 0 0 0 8.004h25.012a4.002 4.002 0 0 0 4.001-4.002zm-2 0a2 2 0 0 1-2.001 2H17.203a2 2 0 0 1 0-4.001h25.012a2 2 0 0 1 2 2zM46.216 36.171a4.002 4.002 0 0 0-4.001-4.002H17.203a4.002 4.002 0 0 0 0 8.004h25.012a4.002 4.002 0 0 0 4.001-4.002zm-2 0a2 2 0 0 1-2.001 2.001H17.203a2 2 0 0 1 0-4.002h25.012a2 2 0 0 1 2 2.001zM6.686 7.642a4.502 4.502 0 0 0 0 9.002 4.504 4.504 0 0 0 4.501-4.501 4.503 4.503 0 0 0-4.501-4.501zm0 2a2.502 2.502 0 1 1-.003 5.003 2.502 2.502 0 0 1 .003-5.004zM6.686 19.634a4.502 4.502 0 0 0 0 9.003 4.504 4.504 0 0 0 4.501-4.502 4.503 4.503 0 0 0-4.501-4.5zm0 2a2.502 2.502 0 1 1-.003 5.003 2.502 2.502 0 0 1 .003-5.003zM6.686 31.627a4.502 4.502 0 0 0 0 9.002 4.504 4.504 0 0 0 4.501-4.501 4.503 4.503 0 0 0-4.501-4.501zm0 2a2.502 2.502 0 1 1-.003 5.003 2.502 2.502 0 0 1 .003-5.004z" fill="#000000" opacity="1" data-original="#000000"></path></g></svg>