<svg xmlns="http://www.w3.org/2000/svg" version="1.1" xmlns:xlink="http://www.w3.org/1999/xlink" width="16" height="16" x="0" y="0" viewBox="0 0 512.001 512" style="enable-background:new 0 0 512 512" xml:space="preserve" class=""><g><path d="M512 236c0 45.45-14.04 89.578-40.602 127.613-6.324 9.059-18.793 11.274-27.847 4.95-9.059-6.325-11.274-18.793-4.95-27.848C460.454 309.425 472 273.215 472 236c0-108.074-96.898-196-216-196S40 127.926 40 236c0 43.781 15.578 85.2 45.047 119.773a19.993 19.993 0 0 1 3.32 20.47l-31.363 77.589 91.344-40.27a20.002 20.002 0 0 1 15.914-.093C193.082 425.766 223.945 432 256 432c36.895 0 73.3-8.586 105.285-24.832 9.848-5 21.89-1.07 26.89 8.773 5 9.852 1.071 21.887-8.777 26.891C341.828 461.914 299.156 472 256 472c-34.48 0-67.832-6.191-99.273-18.414L28.07 510.3a20.006 20.006 0 0 1-21.992-3.941 20.002 20.002 0 0 1-4.621-21.856l45.414-112.332C16.164 332.254 0 285.426 0 236c0-63.375 26.855-122.855 75.621-167.488C123.891 24.332 187.953 0 256 0c68.05 0 132.11 24.332 180.383 68.512C485.145 113.145 512 172.625 512 236zm-256 90c-11.043 0-20 8.953-20 20s8.957 20 20 20c11.047 0 20-8.953 20-20s-8.953-20-20-20zm20.012-67.652c0-5.711 3.25-10.793 8.285-12.942a72.012 72.012 0 0 0 43.8-66.336c0-.28-.007-.562-.019-.843-.457-39.352-32.61-71.227-72.066-71.227-39.742 0-72.074 32.332-72.074 72.074 0 11.047 8.953 20 20 20 11.042 0 20-8.953 20-20 0-17.687 14.386-32.074 32.074-32.074 17.683 0 32.074 14.39 32.074 32.074 0 .192 0 .38.008.57a32.075 32.075 0 0 1-19.5 28.973c-19.793 8.45-32.582 27.969-32.582 49.73V276c0 11.047 8.953 20 20 20 11.043 0 20-8.953 20-20zm0 0" fill="#000000" opacity="1" data-original="#000000" class=""></path></g></svg>