<svg xmlns="http://www.w3.org/2000/svg" version="1.1" xmlns:xlink="http://www.w3.org/1999/xlink" width="512" height="512" x="0" y="0" viewBox="0 0 512 512" style="enable-background:new 0 0 512 512" xml:space="preserve" class=""><g><path d="M512 215.76a6.928 6.928 0 0 0-3.473-5.993l-35.173-20.201 35.187-20.31c2.144-1.239 3.464-3.527 3.459-6.002s-1.329-4.759-3.473-5.991a599306.821 599306.821 0 0 1-179.865-103.3 6.912 6.912 0 0 0-6.905.007L3.464 237.74a6.92 6.92 0 0 0 .014 11.991c11.722 6.736 23.447 13.464 35.17 20.199L3.459 290.244A6.91 6.91 0 0 0 0 296.242a6.928 6.928 0 0 0 3.473 5.993l35.172 20.2-35.186 20.311a6.916 6.916 0 0 0-3.459 6 6.928 6.928 0 0 0 3.473 5.993l179.865 103.3a6.917 6.917 0 0 0 6.905-.009L508.54 274.262a6.91 6.91 0 0 0 3.459-6 6.927 6.927 0 0 0-3.473-5.991l-35.172-20.199 35.186-20.314a6.91 6.91 0 0 0 3.46-5.998zM325.225 67.947a607885.758 607885.758 0 0 0 165.986 95.331l-119.802 69.15a5206.762 5206.762 0 0 1-19.895-11.369l68.107-39.299a6.92 6.92 0 0 0 2.369-9.719c-1.464-2.293-3.613-6.854-1.532-11.631a6.922 6.922 0 0 0-2.901-8.759l-73.631-42.318a6.923 6.923 0 0 0-5.865-.482c-9.459 3.532-22.369 2.973-32.878-1.417a6.934 6.934 0 0 0-6.126.394l-72.072 41.617-7.55-4.347-13.953-8.032zm81.951 105.016-69.546 40.13a109647.28 109647.28 0 0 1-96.783-55.667l62.279-35.967c11.914 4.164 25.387 4.687 36.586 1.414l66.315 38.113c-.586 3.938-.194 8.015 1.149 11.977zm-266.717 1.639c6.684 3.84 13.369 7.676 20.054 11.516l-67.991 39.277a6.911 6.911 0 0 0-3.261 4.351 6.904 6.904 0 0 0 .892 5.365c1.464 2.293 3.613 6.854 1.536 11.626a6.922 6.922 0 0 0 2.901 8.759l73.608 42.252a6.916 6.916 0 0 0 5.865.482c9.45-3.529 22.36-2.975 32.883 1.41a6.894 6.894 0 0 0 6.121-.394l11.342-6.55c20.233-11.685 40.463-23.368 60.699-35.04l21.358 12.26-119.693 69.128a447608.223 447608.223 0 0 1-165.991-95.329zm-35.491 59.584 69.417-40.102c29.279 16.815 58.559 33.63 87.84 50.438l9.007 5.17c-17.917 10.336-35.83 20.677-53.741 31.021L209 285.618c-11.923-4.164-25.387-4.676-36.59-1.408l-66.288-38.05c.581-3.936.189-8.013-1.154-11.974zM52.52 277.897a459935.93 459935.93 0 0 0 130.818 75.131 6.917 6.917 0 0 0 6.905-.009l123.19-71.148.088 36.505-126.746 73.174-165.991-95.331zm134.255 166.158L20.784 348.724l31.739-18.319 130.815 75.13a6.917 6.917 0 0 0 6.905-.009L313.56 334.33l.089 36.478zm140.693-81.225-.225-92.953a6.91 6.91 0 0 0-3.473-5.984s-131.198-75.309-169.459-97.291l37.324-21.541s161.41 92.932 172.932 99.216l.194 97.018zm163.748-94.543-112.633 65.031-.073-36.487 80.989-46.758zm-112.739 12.585-.073-36.501 81.091-46.807 31.721 18.218zm-211.824-23.763a6.916 6.916 0 0 1 2.532-9.45l30.311-17.502a6.911 6.911 0 0 1 9.45 2.532 6.916 6.916 0 0 1-2.532 9.45l-30.311 17.502a6.911 6.911 0 0 1-9.45-2.532zm182.689-105.487a6.916 6.916 0 0 1-2.532 9.45l-26.658 15.392a6.87 6.87 0 0 1-3.455.928 6.91 6.91 0 0 1-5.995-3.459 6.916 6.916 0 0 1 2.532-9.45l26.658-15.392a6.911 6.911 0 0 1 9.45 2.531z" fill="#000000" opacity="1" data-original="#000000" class=""></path></g></svg>