<svg xmlns="http://www.w3.org/2000/svg" version="1.1" xmlns:xlink="http://www.w3.org/1999/xlink" width="512" height="512" x="0" y="0" viewBox="0 0 32 32" style="enable-background:new 0 0 512 512" xml:space="preserve" class=""><g><g data-name="Layer 2"><path d="M14.567 16a7 7 0 1 0-7-7 7.008 7.008 0 0 0 7 7zm0-12a5 5 0 1 1-5 5 5.006 5.006 0 0 1 5-5zM26.414 25l2.122-2.121a1 1 0 0 0-1.414-1.414L25 23.586l-2.122-2.121a1 1 0 0 0-1.414 1.414L23.586 25l-2.122 2.121a1 1 0 1 0 1.414 1.414L25 26.414l2.122 2.121a1 1 0 0 0 1.414-1.414zM19 28H5.02a1.024 1.024 0 0 1-.838-.427.9.9 0 0 1-.141-.822 11.139 11.139 0 0 1 14.592-6.79 1 1 0 0 0 .734-1.861 13.141 13.141 0 0 0-17.229 8.034 2.9 2.9 0 0 0 .426 2.616A3.047 3.047 0 0 0 5.02 30H19a1 1 0 0 0 0-2z" fill="#b91c1ce6" opacity="1" data-original="#b91c1ce6" class=""></path></g></g></svg>