<svg xmlns="http://www.w3.org/2000/svg" version="1.1" xmlns:xlink="http://www.w3.org/1999/xlink" width="512" height="512" x="0" y="0" viewBox="0 0 512 512" style="enable-background:new 0 0 512 512" xml:space="preserve" class=""><g><linearGradient id="a" x1="164.82" x2="347.18" y1="164.82" y2="347.18" gradientTransform="rotate(45 256.068 255.972)" gradientUnits="userSpaceOnUse"><stop offset="0" stop-color="#91c553"></stop><stop offset="1" stop-color="#60a113"></stop></linearGradient><linearGradient id="b" x1="184.36" x2="327.64" y1="184.36" y2="327.64" gradientTransform="rotate(-45 255.972 256.068)" gradientUnits="userSpaceOnUse"><stop offset="0" stop-color="#408336"></stop><stop offset="1" stop-color="#0a4b00"></stop></linearGradient><linearGradient xlink:href="#a" id="e" x1="197.39" x2="314.62" y1="197.38" y2="314.61"></linearGradient><linearGradient xlink:href="#b" id="f" x1="207.15" x2="304.85" y1="207.15" y2="304.85"></linearGradient><linearGradient xlink:href="#b" id="g" x1="331.22" x2="363.79" y1="148.21" y2="180.78"></linearGradient><linearGradient xlink:href="#b" id="h" x1="148.21" x2="180.78" y1="331.22" y2="363.79"></linearGradient><linearGradient id="c" x1="59.46" x2="452.54" y1="59.46" y2="452.54" gradientUnits="userSpaceOnUse"><stop offset="0" stop-color="#aeed64"></stop><stop offset="1" stop-color="#78c918"></stop></linearGradient><linearGradient id="d" x1="88" x2="424" y1="88" y2="424" gradientTransform="rotate(-90 256 256)" gradientUnits="userSpaceOnUse"><stop offset="0" stop-color="#53ab46"></stop><stop offset="1" stop-color="#107300"></stop></linearGradient><linearGradient xlink:href="#c" id="i" x1="129.29" x2="382.72" y1="129.28" y2="382.71"></linearGradient><linearGradient xlink:href="#d" id="j" x1="202.97" x2="309.03" y1="202.97" y2="309.03"></linearGradient><linearGradient xlink:href="#d" id="k" x1="378.82" x2="414.18" y1="238.32" y2="273.68"></linearGradient><linearGradient xlink:href="#d" id="l" x1="97.82" x2="133.18" y1="238.32" y2="273.68"></linearGradient><linearGradient xlink:href="#c" id="m" x1="221.61" x2="304.18" y1="206.05" y2="288.62"></linearGradient><rect width="471.58" height="257.89" x="20.21" y="127.05" fill="url(#a)" rx="4.61" transform="rotate(-45 255.972 256.068)" opacity="1" data-original="url(#a)" class=""></rect><path fill="url(#b)" d="M154.68 47.84h202.63v416.32H154.68z" transform="rotate(45 256.068 255.972)" opacity="1" data-original="url(#b)" class=""></path><path fill="url(#e)" d="m360.94 92.61 62.91 62.91a27.204 27.204 0 0 0-7.89 5.66c-10.06 10.33-10.42 26.99-.78 37.71 1.14 1.27 2.37 2.41 3.67 3.42 2.41 1.87 2.7 5.39.55 7.54L209.86 419.39c-2.16 2.16-5.67 1.86-7.54-.55-1.01-1.3-2.15-2.53-3.42-3.67-10.72-9.64-27.39-9.27-37.71.78-.97.95-1.86 1.95-2.66 2.99-1.82 2.37-5.34 2.56-7.45.44l-58.45-58.45c-2.12-2.12-1.93-5.63.44-7.45 1.04-.8 2.04-1.69 2.99-2.66 10.06-10.32 10.42-26.99.78-37.71a28.081 28.081 0 0 0-3.67-3.42c-2.41-1.87-2.7-5.39-.55-7.54L302.15 92.61c2.16-2.16 5.67-1.86 7.54.55 1.01 1.3 2.15 2.52 3.42 3.67 10.72 9.64 27.39 9.28 37.71-.78.97-.95 1.86-1.95 2.66-2.99 1.82-2.37 5.34-2.56 7.45-.44z" opacity="1" data-original="url(#e)"></path><circle cx="256" cy="256" r="69.08" fill="url(#f)" opacity="1" data-original="url(#f)"></circle><circle cx="347.51" cy="164.5" r="23.03" fill="url(#g)" opacity="1" data-original="url(#g)"></circle><circle cx="164.5" cy="347.51" r="23.03" fill="url(#h)" opacity="1" data-original="url(#h)"></circle><g data-name="Money"><rect width="512" height="280" y="116" fill="url(#c)" rx="5" opacity="1" data-original="url(#c)" class=""></rect><path fill="url(#d)" d="M146 30h220v452H146z" transform="rotate(90 256 256)" opacity="1" data-original="url(#d)"></path><path fill="url(#i)" d="M462 210.64v90.72c0 3.07-2.73 5.37-5.77 4.94-1.71-.24-3.47-.34-5.26-.28-15.4.51-28.1 12.94-28.92 28.32-.11 2.03-.02 4.01.26 5.94.43 3.02-1.89 5.72-4.94 5.72H94.64c-3.05 0-5.37-2.7-4.94-5.72.28-1.93.37-3.92.26-5.94-.82-15.39-13.52-27.81-28.92-28.32-1.79-.06-3.55.04-5.26.28-3.04.43-5.77-1.87-5.77-4.94v-90.72c0-3.07 2.73-5.37 5.77-4.94 1.71.24 3.47.34 5.26.28 15.4-.51 28.1-12.93 28.92-28.32.11-2.03.02-4.02-.26-5.94-.43-3.02 1.89-5.72 4.94-5.72h322.72c3.05 0 5.37 2.7 4.94 5.72-.27 1.93-.37 3.91-.26 5.94.82 15.39 13.52 27.81 28.92 28.32 1.79.06 3.55-.04 5.26-.28 3.04-.43 5.77 1.87 5.77 4.94z" opacity="1" data-original="url(#i)"></path><circle cx="256" cy="256" r="75" fill="url(#j)" opacity="1" data-original="url(#j)"></circle><circle cx="396.5" cy="256" r="25" fill="url(#k)" opacity="1" data-original="url(#k)"></circle><circle cx="115.5" cy="256" r="25" fill="url(#l)" opacity="1" data-original="url(#l)"></circle></g><path fill="url(#m)" d="M288.13 219.83h-14.86c2.15 3.44 3.54 7.32 4.17 11.64h14.64l-4.03 15.45h-10.76c-1.12 6.78-3.72 12.32-7.8 16.62-4.08 4.29-9.87 7.59-17.38 9.88l29.72 36.46v1.1h-27.52l-33.6-40.11-.07-14.13h17.28c6.98-.15 11.49-3.42 13.54-9.81h-32.94l4.03-15.45h28.33c-2.15-4.64-6.34-7.05-12.59-7.25H218.6l4.68-19.84h68.88z" data-name="Icon" opacity="1" data-original="url(#m)"></path></g></svg>