<svg xmlns="http://www.w3.org/2000/svg" version="1.1" xmlns:xlink="http://www.w3.org/1999/xlink" width="512" height="512" x="0" y="0" viewBox="0 0 682.667 682.667" style="enable-background:new 0 0 512 512" xml:space="preserve" class=""><g><defs><clipPath id="a" clipPathUnits="userSpaceOnUse"><path d="M0 512h512V0H0Z" fill="#f69000" opacity="1" data-original="#f69000"></path></clipPath></defs><g clip-path="url(#a)" transform="matrix(1.33333 0 0 -1.33333 0 682.667)"><path d="M0 0c-38.845 0-70.335 31.49-70.335 70.335v.001c0 38.845 31.49 70.335 70.335 70.335h339.639" style="stroke-width:15;stroke-linecap:round;stroke-linejoin:round;stroke-miterlimit:10;stroke-dasharray:none;stroke-opacity:1" transform="translate(104.277 153.152)" fill="none" stroke="#f69000" stroke-width="15" stroke-linecap="round" stroke-linejoin="round" stroke-miterlimit="10" stroke-dasharray="none" stroke-opacity="" data-original="#f69000" class=""></path><path d="M0 0h235.917c8.762 0 15.865-7.104 15.865-15.865 0-8.763-7.103-15.865-15.865-15.865" style="stroke-width:15;stroke-linecap:round;stroke-linejoin:round;stroke-miterlimit:10;stroke-dasharray:none;stroke-opacity:1" transform="translate(201 184.883)" fill="none" stroke="#f69000" stroke-width="15" stroke-linecap="round" stroke-linejoin="round" stroke-miterlimit="10" stroke-dasharray="none" stroke-opacity="" data-original="#f69000" class=""></path><path d="M0 0h-332.639c-21.321 0-38.605-17.284-38.605-38.605 0-21.321 17.284-38.605 38.605-38.605h61.722" style="stroke-width:15;stroke-linecap:round;stroke-linejoin:round;stroke-miterlimit:10;stroke-dasharray:none;stroke-opacity:1" transform="translate(436.916 262.093)" fill="none" stroke="#f69000" stroke-width="15" stroke-linecap="round" stroke-linejoin="round" stroke-miterlimit="10" stroke-dasharray="none" stroke-opacity="" data-original="#f69000" class=""></path><path d="M0 0a94.09 94.09 0 0 1 0-72.015" style="stroke-width:15;stroke-linecap:round;stroke-linejoin:round;stroke-miterlimit:10;stroke-dasharray:none;stroke-opacity:1" transform="translate(430.57 259.495)" fill="none" stroke="#f69000" stroke-width="15" stroke-linecap="round" stroke-linejoin="round" stroke-miterlimit="10" stroke-dasharray="none" stroke-opacity="" data-original="#f69000" class=""></path><path d="M0 0a94.1 94.1 0 0 1 0-72.015" style="stroke-width:15;stroke-linecap:round;stroke-linejoin:round;stroke-miterlimit:10;stroke-dasharray:none;stroke-opacity:1" transform="translate(457.593 119.057)" fill="none" stroke="#f69000" stroke-width="15" stroke-linecap="round" stroke-linejoin="round" stroke-miterlimit="10" stroke-dasharray="none" stroke-opacity="" data-original="#f69000" class=""></path><path d="M0 0v-48.653l22.984 9 22.984-9V0" style="stroke-width:15;stroke-linecap:round;stroke-linejoin:round;stroke-miterlimit:10;stroke-dasharray:none;stroke-opacity:1" transform="translate(139.198 261.565)" fill="none" stroke="#f69000" stroke-width="15" stroke-linecap="round" stroke-linejoin="round" stroke-miterlimit="10" stroke-dasharray="none" stroke-opacity="" data-original="#f69000" class=""></path><path d="M0 0h54.358c8.763 0 15.866-7.104 15.866-15.865 0-8.763-7.103-15.865-15.866-15.865h-385.523c-38.845 0-70.335 31.49-70.335 70.334v.001c0 38.845 31.49 70.335 70.335 70.335H54.358c8.763 0 15.866-7.103 15.866-15.865S63.121 77.21 54.358 77.21h-385.523c-21.321 0-38.605-17.284-38.605-38.606C-369.77 17.284-352.486 0-331.165 0H-35" style="stroke-width:15;stroke-linecap:round;stroke-linejoin:round;stroke-miterlimit:10;stroke-dasharray:none;stroke-opacity:1" transform="translate(409 44.212)" fill="none" stroke="#f69000" stroke-width="15" stroke-linecap="round" stroke-linejoin="round" stroke-miterlimit="10" stroke-dasharray="none" stroke-opacity="" data-original="#f69000" class=""></path><path d="M0 0v-48.653l22.984 9 22.984-9V0" style="stroke-width:15;stroke-linecap:round;stroke-linejoin:round;stroke-miterlimit:10;stroke-dasharray:none;stroke-opacity:1" transform="translate(321.87 120.533)" fill="none" stroke="#f69000" stroke-width="15" stroke-linecap="round" stroke-linejoin="round" stroke-miterlimit="10" stroke-dasharray="none" stroke-opacity="" data-original="#f69000" class=""></path><path d="m0 0 52.499 18.174a33.734 33.734 0 0 0 22.072 0L285.428-54.82c7.402-2.563 7.402-13.032 0-15.594L203.229-98.87" style="stroke-width:15;stroke-linecap:round;stroke-linejoin:round;stroke-miterlimit:10;stroke-dasharray:none;stroke-opacity:1" transform="translate(179.827 479.488)" fill="none" stroke="#f69000" stroke-width="15" stroke-linecap="round" stroke-linejoin="round" stroke-miterlimit="10" stroke-dasharray="none" stroke-opacity="" data-original="#f69000" class=""></path><path d="m0 0-81.678 28.275c-7.402 2.563-7.402 13.032 0 15.594l124.676 43.16" style="stroke-width:15;stroke-linecap:round;stroke-linejoin:round;stroke-miterlimit:10;stroke-dasharray:none;stroke-opacity:1" transform="translate(103.147 380.799)" fill="none" stroke="#f69000" stroke-width="15" stroke-linecap="round" stroke-linejoin="round" stroke-miterlimit="10" stroke-dasharray="none" stroke-opacity="" data-original="#f69000" class=""></path><path d="M0 0v-58.657" style="stroke-width:15;stroke-linecap:round;stroke-linejoin:round;stroke-miterlimit:10;stroke-dasharray:none;stroke-opacity:1" transform="translate(470.807 415.487)" fill="none" stroke="#f69000" stroke-width="15" stroke-linecap="round" stroke-linejoin="round" stroke-miterlimit="10" stroke-dasharray="none" stroke-opacity="" data-original="#f69000" class=""></path><path d="m0 0-18.463-45.51c-3.679-9.068 2.93-19.006 12.639-19.006h40.045c9.709 0 16.318 9.938 12.639 19.006L28.421-.059" style="stroke-width:15;stroke-linecap:round;stroke-linejoin:round;stroke-miterlimit:10;stroke-dasharray:none;stroke-opacity:1" transform="translate(456.608 315.871)" fill="none" stroke="#f69000" stroke-width="15" stroke-linecap="round" stroke-linejoin="round" stroke-miterlimit="10" stroke-dasharray="none" stroke-opacity="" data-original="#f69000" class=""></path><path d="M0 0c0 12.651-10.16 22.907-22.693 22.907-12.534 0-22.694-10.256-22.694-22.907 0-12.65 10.16-22.906 22.694-22.906C-10.16-22.906 0-12.65 0 0Z" style="stroke-width:15;stroke-linecap:round;stroke-linejoin:round;stroke-miterlimit:10;stroke-dasharray:none;stroke-opacity:1" transform="translate(493.5 333.923)" fill="none" stroke="#f69000" stroke-width="15" stroke-linecap="round" stroke-linejoin="round" stroke-miterlimit="10" stroke-dasharray="none" stroke-opacity="" data-original="#f69000" class=""></path><path d="M0 0v98.484a11.246 11.246 0 0 0 9.26 11.069 737.046 737.046 0 0 0 260.184 0h.001a11.246 11.246 0 0 0 9.26-11.069V0" style="stroke-width:15;stroke-linecap:round;stroke-linejoin:round;stroke-miterlimit:10;stroke-dasharray:none;stroke-opacity:1" transform="translate(104.01 294.794)" fill="none" stroke="#f69000" stroke-width="15" stroke-linecap="round" stroke-linejoin="round" stroke-miterlimit="10" stroke-dasharray="none" stroke-opacity="" data-original="#f69000" class=""></path><path d="M0 0h53.714" style="stroke-width:15;stroke-linecap:round;stroke-linejoin:round;stroke-miterlimit:10;stroke-dasharray:none;stroke-opacity:1" transform="translate(329 334.661)" fill="none" stroke="#f69000" stroke-width="15" stroke-linecap="round" stroke-linejoin="round" stroke-miterlimit="10" stroke-dasharray="none" stroke-opacity="" data-original="#f69000" class=""></path><path d="M0 0h189.991" style="stroke-width:15;stroke-linecap:round;stroke-linejoin:round;stroke-miterlimit:10;stroke-dasharray:none;stroke-opacity:1" transform="translate(104.01 334.661)" fill="none" stroke="#f69000" stroke-width="15" stroke-linecap="round" stroke-linejoin="round" stroke-miterlimit="10" stroke-dasharray="none" stroke-opacity="" data-original="#f69000" class=""></path></g></g></svg>