<svg xmlns="http://www.w3.org/2000/svg" version="1.1" xmlns:xlink="http://www.w3.org/1999/xlink" width="16" height="16" x="0" y="0" viewBox="0 0 32 32" style="enable-background:new 0 0 512 512" xml:space="preserve" class=""><g><path d="M20.03 14.084a.9.9 0 0 0-.9-.9h-9.9a.9.9 0 0 0 0 1.8h9.9a.9.9 0 0 0 .9-.9zM9.228 17.729a.9.9 0 0 0 0 1.8h5.249a.9.9 0 0 0 0-1.8z" fill="#000000" opacity="1" data-original="#000000"></path><path d="M25.96 14.134a.9.9 0 0 0-.9.9v7.279a2.473 2.473 0 0 1-2.47 2.47h-6.02a.896.896 0 0 0-.541.181l-5.198 3.909a.282.282 0 0 1-.318.024.287.287 0 0 1-.163-.272l.1-2.91a.902.902 0 0 0-.899-.931H5.37a2.472 2.472 0 0 1-2.47-2.47v-11.9a2.477 2.477 0 0 1 2.47-2.479h11.09a.9.9 0 0 0 0-1.8H5.37a4.28 4.28 0 0 0-4.27 4.28v11.899a4.276 4.276 0 0 0 4.27 4.271h3.249l-.068 1.982a2.087 2.087 0 0 0 1.132 1.929 2.1 2.1 0 0 0 .972.24c.443 0 .882-.143 1.256-.422l4.959-3.729h5.719a4.276 4.276 0 0 0 4.27-4.271v-7.279a.899.899 0 0 0-.899-.901z" fill="#000000" opacity="1" data-original="#000000"></path><path d="M30.825 5.561a1.503 1.503 0 0 0-1.073-1l-2.3-.573-1.256-2.01c-.557-.894-2.011-.892-2.567 0l-1.256 2.01-2.3.573c-.509.126-.911.5-1.073 1s-.058 1.039.28 1.442l1.524 1.814-.166 2.364a1.504 1.504 0 0 0 .62 1.33 1.507 1.507 0 0 0 1.457.179l2.198-.888 2.197.888c.487.198 1.031.13 1.457-.178.425-.309.657-.806.621-1.331l-.166-2.364 1.524-1.815c.337-.402.442-.941.279-1.441zm-3.416 2.377a.899.899 0 0 0-.208.643l.16 2.27-2.11-.853a.895.895 0 0 0-.674 0l-2.109.853.159-2.27a.91.91 0 0 0-.208-.643l-1.463-1.742 2.208-.551a.9.9 0 0 0 .545-.396l1.206-1.929 1.206 1.929c.124.198.319.34.545.396l2.208.551z" fill="#000000" opacity="1" data-original="#000000"></path></g></svg>