<svg xmlns="http://www.w3.org/2000/svg" version="1.1" xmlns:xlink="http://www.w3.org/1999/xlink" width="512" height="512" x="0" y="0" viewBox="0 0 24 24" style="enable-background:new 0 0 512 512" xml:space="preserve" class=""><g><path fill="#90a4ae" d="M22.25 24h-8.5a.75.75 0 0 1-.75-.75V9.75a.75.75 0 0 1 .903-.734l8.717 1.826c.816.181 1.38.883 1.38 1.71v9.698c0 .965-.785 1.75-1.75 1.75z" opacity="1" data-original="#90a4ae" class=""></path><path fill="#607d8b" d="M13.03 1.87 2.04.2C1.53.12 1.01.26.62.59.23.93 0 1.42 0 1.93V23c0 .55.45 1 1 1h3.25v-5.25c0-.97.78-1.75 1.75-1.75h2.5c.97 0 1.75.78 1.75 1.75V24h4.25V3.6c0-.86-.62-1.59-1.47-1.73z" opacity="1" data-original="#607d8b" class=""></path><g fill="#eceff1"><path d="M10.25 18.75V24h-6v-5.25c0-.97.78-1.75 1.75-1.75h2.5c.97 0 1.75.78 1.75 1.75zM5.5 5.75H4a.75.75 0 0 1 0-1.5h1.5a.75.75 0 0 1 0 1.5zM10.5 5.75H9a.75.75 0 0 1 0-1.5h1.5a.75.75 0 0 1 0 1.5zM5.5 8.75H4a.75.75 0 0 1 0-1.5h1.5a.75.75 0 0 1 0 1.5zM10.5 8.75H9a.75.75 0 0 1 0-1.5h1.5a.75.75 0 0 1 0 1.5zM5.5 11.75H4a.75.75 0 0 1 0-1.5h1.5a.75.75 0 0 1 0 1.5zM10.5 11.75H9a.75.75 0 0 1 0-1.5h1.5a.75.75 0 0 1 0 1.5zM5.5 14.75H4a.75.75 0 0 1 0-1.5h1.5a.75.75 0 0 1 0 1.5zM10.5 14.75H9a.75.75 0 0 1 0-1.5h1.5a.75.75 0 0 1 0 1.5zM19.75 15h-1.5a.75.75 0 0 1 0-1.5h1.5a.75.75 0 0 1 0 1.5zM19.75 18h-1.5a.75.75 0 0 1 0-1.5h1.5a.75.75 0 0 1 0 1.5zM19.75 21h-1.5a.75.75 0 0 1 0-1.5h1.5a.75.75 0 0 1 0 1.5z" fill="#eceff1" opacity="1" data-original="#eceff1" class=""></path></g></g></svg>