<svg xmlns="http://www.w3.org/2000/svg" version="1.1" xmlns:xlink="http://www.w3.org/1999/xlink" width="512" height="512" x="0" y="0" viewBox="0 0 682.667 682.667" style="enable-background:new 0 0 512 512" xml:space="preserve" class=""><g><defs><clipPath id="a" clipPathUnits="userSpaceOnUse"><path d="M0 512h512V0H0Z" fill="#f69000" opacity="1" data-original="#f69000"></path></clipPath></defs><g clip-path="url(#a)" transform="matrix(1.33333 0 0 -1.33333 0 682.667)"><path d="m0 0-16.831 16.831c-46.478 46.478-121.833 46.478-168.311 0-46.478-46.477-46.478-121.833 0-168.31L0-336.621l185.142 185.142c46.478 46.477 46.478 121.833 0 168.31-46.478 46.478-121.833 46.478-168.311 0z" style="stroke-width:30;stroke-linecap:round;stroke-linejoin:round;stroke-miterlimit:10;stroke-dasharray:none;stroke-opacity:1" transform="translate(256 398.466)" fill="none" stroke="#f69000" stroke-width="30" stroke-linecap="round" stroke-linejoin="round" stroke-miterlimit="10" stroke-dasharray="none" stroke-opacity="" data-original="#f69000" class=""></path><path d="M0 0h142" style="stroke-width:30;stroke-linecap:round;stroke-linejoin:round;stroke-miterlimit:10;stroke-dasharray:none;stroke-opacity:1" transform="translate(355 256)" fill="none" stroke="#f69000" stroke-width="30" stroke-linecap="round" stroke-linejoin="round" stroke-miterlimit="10" stroke-dasharray="none" stroke-opacity="" data-original="#f69000" class=""></path><path d="M0 0h121" style="stroke-width:30;stroke-linecap:round;stroke-linejoin:round;stroke-miterlimit:10;stroke-dasharray:none;stroke-opacity:1" transform="translate(15 256)" fill="none" stroke="#f69000" stroke-width="30" stroke-linecap="round" stroke-linejoin="round" stroke-miterlimit="10" stroke-dasharray="none" stroke-opacity="" data-original="#f69000" class=""></path><path d="m0 0 42 100" style="stroke-width:30;stroke-linecap:round;stroke-linejoin:round;stroke-miterlimit:10;stroke-dasharray:none;stroke-opacity:1" transform="translate(136 256)" fill="none" stroke="#f69000" stroke-width="30" stroke-linecap="round" stroke-linejoin="round" stroke-miterlimit="10" stroke-dasharray="none" stroke-opacity="" data-original="#f69000" class=""></path><path d="m0 0-76 150M0 0l63 110" style="stroke-width:30;stroke-linecap:round;stroke-linejoin:round;stroke-miterlimit:10;stroke-dasharray:none;stroke-opacity:1" transform="translate(254 206)" fill="none" stroke="#f69000" stroke-width="30" stroke-linecap="round" stroke-linejoin="round" stroke-miterlimit="10" stroke-dasharray="none" stroke-opacity="" data-original="#f69000" class=""></path><path d="m0 0-38 60" style="stroke-width:30;stroke-linecap:round;stroke-linejoin:round;stroke-miterlimit:10;stroke-dasharray:none;stroke-opacity:1" transform="translate(355 256)" fill="none" stroke="#f69000" stroke-width="30" stroke-linecap="round" stroke-linejoin="round" stroke-miterlimit="10" stroke-dasharray="none" stroke-opacity="" data-original="#f69000" class=""></path></g></g></svg>