<svg xmlns="http://www.w3.org/2000/svg" version="1.1" xmlns:xlink="http://www.w3.org/1999/xlink" width="16" height="16" x="0" y="0" viewBox="0 0 512 512" style="enable-background:new 0 0 512 512" xml:space="preserve" class=""><g><path d="M512 256c0-68.38-26.629-132.667-74.98-181.02C388.667 26.629 324.38 0 256 0c-53.592 0-104.663 16.368-147.525 46.72a44.832 44.832 0 0 0-22.887-6.258c-24.882 0-45.125 20.243-45.125 45.125 0 8.35 2.288 16.172 6.258 22.888C16.369 151.338 0 202.408 0 256c0 68.38 26.629 132.667 74.98 181.02C123.333 485.371 187.62 512 256 512c53.589 0 104.65-16.378 147.511-46.729a44.838 44.838 0 0 0 22.902 6.266c24.882 0 45.125-20.243 45.125-45.125 0-8.35-2.288-16.172-6.258-22.887C495.632 360.663 512 309.592 512 256zM85.587 70.462c8.34 0 15.125 6.785 15.125 15.125s-6.785 15.125-15.125 15.125-15.125-6.785-15.125-15.125 6.786-15.125 15.125-15.125zm340.826 371.076c-8.34 0-15.125-6.785-15.125-15.125s6.785-15.125 15.125-15.125 15.125 6.785 15.125 15.125-6.786 15.125-15.125 15.125zm15.801-57.388a44.894 44.894 0 0 0-15.801-2.862c-24.882 0-45.125 20.243-45.125 45.125a44.896 44.896 0 0 0 2.857 15.789C346.739 468.062 302.446 482 256 482c-60.367 0-117.12-23.508-159.806-66.194S30 316.367 30 256c0-46.445 13.932-90.742 39.793-128.147a44.903 44.903 0 0 0 15.794 2.859c24.882 0 45.125-20.243 45.125-45.125a44.892 44.892 0 0 0-2.857-15.789C165.261 43.937 209.554 30 256 30c60.367 0 117.12 23.508 159.806 66.194S482 195.633 482 256c0 46.445-13.927 90.744-39.786 128.15z" fill="#000000" opacity="1" data-original="#000000" class=""></path><path d="M416.224 140.901c0-24.882-20.243-45.125-45.125-45.125a44.848 44.848 0 0 0-24.559 7.298C320.004 87.301 289.045 78.226 256 78.226c-98.025 0-177.774 79.749-177.774 177.774 0 33.046 9.076 64.006 24.848 90.541a44.844 44.844 0 0 0-7.297 24.558c0 24.882 20.243 45.125 45.125 45.125a44.848 44.848 0 0 0 24.554-7.295c26.536 15.772 57.499 24.845 90.545 24.845 98.025 0 177.774-79.749 177.774-177.774 0-33.046-9.076-64.005-24.849-90.54a44.848 44.848 0 0 0 7.298-24.559zm-45.125-15.125c8.34 0 15.125 6.785 15.125 15.125s-6.785 15.125-15.125 15.125-15.125-6.785-15.125-15.125 6.785-15.125 15.125-15.125zM140.901 386.224c-8.34 0-15.125-6.785-15.125-15.125s6.785-15.125 15.125-15.125 15.125 6.785 15.125 15.125-6.785 15.125-15.125 15.125zM256 403.774c-26.187 0-50.793-6.862-72.145-18.861a44.93 44.93 0 0 0 2.171-13.815c0-24.882-20.243-45.125-45.125-45.125-4.821 0-9.465.768-13.824 2.175-11.998-21.351-18.852-45.963-18.852-72.149 0-81.483 66.291-147.774 147.774-147.774 26.186 0 50.793 6.863 72.145 18.86a44.931 44.931 0 0 0-2.172 13.815c0 24.882 20.243 45.125 45.125 45.125a44.95 44.95 0 0 0 13.814-2.171c11.998 21.352 18.861 45.959 18.861 72.146.002 81.483-66.289 147.774-147.772 147.774z" fill="#000000" opacity="1" data-original="#000000" class=""></path><path d="M286.754 202.7 256 149.981 225.246 202.7l-61.059.273L194.476 256l-30.288 53.027 61.059.273L256 362.019l30.754-52.719 61.059-.273L317.524 256l30.288-53.027zm9.506 76.557-26.781.12L256 302.481l-13.479-23.104-26.781-.12L229.024 256l-13.284-23.257 26.781-.12L256 209.519l13.479 23.104 26.781.12L282.976 256z" fill="#000000" opacity="1" data-original="#000000" class=""></path></g></svg>