<svg xmlns="http://www.w3.org/2000/svg" version="1.1" xmlns:xlink="http://www.w3.org/1999/xlink" width="512" height="512" x="0" y="0" viewBox="0 0 512 512" style="enable-background:new 0 0 512 512" xml:space="preserve"><g><path d="M368.852 299.953c13.57 0 24.609-11.04 24.609-24.609 0-4.143-3.358-7.5-7.5-7.5s-7.5 3.357-7.5 7.5c0 5.299-4.311 9.609-9.609 9.609s-9.609-4.311-9.609-9.609c0-4.143-3.358-7.5-7.5-7.5s-7.5 3.357-7.5 7.5c-.001 13.569 11.039 24.609 24.609 24.609zM408.175 257.883a7.5 7.5 0 0 0 7.5-7.5v-7.837a7.5 7.5 0 0 0-.93-14.943h-6.57a7.5 7.5 0 0 0-7.5 7.5v15.28a7.5 7.5 0 0 0 7.5 7.5zM322.028 242.547v7.837c0 4.143 3.358 7.5 7.5 7.5s7.5-3.357 7.5-7.5v-15.28a7.5 7.5 0 0 0-7.5-7.5h-6.57a7.5 7.5 0 0 0-.93 14.943z" fill="#f69000" opacity="1" data-original="#f69000"></path><path d="M480.945 251.731a34.632 34.632 0 0 0 3.326-14.837c0-8.827-3.305-16.893-8.734-23.041a7.454 7.454 0 0 0 1.372-4.316c0-22.152 1.106-35.289-5.558-54.343-1.368-3.91-5.646-5.975-9.556-4.604a7.5 7.5 0 0 0-4.604 9.556c5.447 15.571 4.717 26.372 4.717 41.891h-46.202c-21.7 0-39.355-17.654-39.356-39.354 0-4.143-3.358-7.5-7.5-7.5s-7.5 3.357-7.5 7.5c0 21.7-17.655 39.354-39.356 39.354h-46.202v-13.972c0-46.61 37.92-84.53 84.53-84.53.567 0 1.028.461 1.028 1.028 0 4.142 3.358 7.499 7.5 7.499s7.5-3.357 7.5-7.499c0-.567.461-1.028 1.028-1.028a84.558 84.558 0 0 1 63.738 29.005 7.5 7.5 0 1 0 11.306-9.857 99.553 99.553 0 0 0-75.043-34.147c-3.132 0-6.057.903-8.528 2.462a15.933 15.933 0 0 0-8.528-2.462c-54.881 0-99.53 44.649-99.53 99.53v21.472c0 1.608.511 3.095 1.372 4.316a34.893 34.893 0 0 0-6.064 9.674 37.92 37.92 0 0 0-14.812-27.127v-28.573c0-56.256-45.767-102.023-102.023-102.023-13.968 0-8.371-.241-27.691 1.269-26.65 2.08-50.499 16.341-64.936 38.527l-22.586-7.219c-4.68-1.5-9.539 1.854-9.775 6.786-.107 2.26-2.37 52.486 6.788 87.469C8.589 198.895 0 211.804 0 226.689c0 19.314 14.456 35.316 33.117 37.754 4.697 20.152 15.793 38.445 31.666 52.012a97.156 97.156 0 0 0 13.253 9.505H62.254c-25.931 0-47.027 21.097-47.027 47.027v65.723a7.5 7.5 0 0 0 7.5 7.5h12.459c4.142 0 7.5-3.357 7.5-7.5s-3.358-7.5-7.5-7.5h-4.959v-58.223c0-17.66 14.367-32.027 32.027-32.027h21.818c3.727 22.114 23.727 38.741 47.092 37.233 21.151-1.363 37.909-17.277 41.276-37.233h21.821c17.66 0 32.028 14.367 32.028 32.027v58.223H70.187c-4.142 0-7.5 3.357-7.5 7.5s3.358 7.5 7.5 7.5H233.79a7.5 7.5 0 0 0 7.5-7.5v-65.723a46.762 46.762 0 0 0-3.454-17.662h12.05a55.753 55.753 0 0 0 21.318-4.221 45.533 45.533 0 0 0-7.325 24.805v62.801a7.5 7.5 0 0 0 7.5 7.5h195.45a7.5 7.5 0 0 0 7.5-7.5v-62.801a45.534 45.534 0 0 0-7.154-24.539 55.752 55.752 0 0 0 20.645 3.955h16.68a7.5 7.5 0 0 0 7.5-7.5v-45.934c0-21.366-12.383-40.792-31.055-50.16zm-158.949-34.693c19.934 0 37.396-10.784 46.856-26.827 9.461 16.043 26.922 26.827 46.856 26.827h33.707c10.949 0 19.856 8.907 19.856 19.856 0 5.354-2.139 10.21-5.595 13.784-3.949 4.08-9.425 6.279-15.057 6.05-3.793-.175-7.09 2.522-7.714 6.256-5.706 34.113-35.216 60.916-72.053 60.916-26.026 0-50.337-13.759-63.418-36.641a7.51 7.51 0 0 0-.425-.904 72.597 72.597 0 0 1-6.916-17.269c-.031-.12-.056-.242-.086-.362a69.794 69.794 0 0 1-1.208-5.741c-.623-3.725-3.934-6.428-7.714-6.256-11.224.456-20.652-8.599-20.652-19.835 0-10.949 8.908-19.856 19.856-19.856.273 0 .545.012.816.022.32.013.635.005.947-.022h31.944zm46.979 153.411c-14.27 0-25.88-11.61-25.88-25.881v-9.503c8.512 2.612 17.401 3.837 25.756 3.837 8.629 0 17.615-1.31 26.003-3.912v9.579c0 13.825-10.896 25.153-24.55 25.847-.44.022-.883.033-1.329.033zm-59.283-40.363h-.009a45.62 45.62 0 0 0-14.698 2.438 55.83 55.83 0 0 0 9.696-21.401 88.186 88.186 0 0 0 6.988 6.686 87.806 87.806 0 0 0 16.426 11.086v1.191zm100.163-1.314c8.49-4.465 16.258-10.29 23.167-17.648a55.813 55.813 0 0 0 9.536 21.175c-8.563-2.766-13.031-2.213-32.702-2.213v-1.314zM29.016 115.715l18.709 5.979a7.503 7.503 0 0 0 8.847-3.516c11.491-20.788 32.49-34.303 56.171-36.15 18.855-1.472 13.138-1.224 26.523-1.224 47.984 0 87.023 39.038 87.023 87.023v21.665c-6.554-1.411-4.481-.849-107.341-.849a49.954 49.954 0 0 1-21.095-4.663c-14.199-6.602-24.967-19.685-28.121-35.807-1.205-6.16-8.787-8.013-12.837-3.684-10.819 11.566-18.383 25.267-22.49 39.486-5.157-23.328-5.574-53.097-5.389-68.26zm17.701 140.281a7.5 7.5 0 0 0-7.699-6.257 22.64 22.64 0 0 1-.942.025C25.352 249.764 15 239.413 15 226.689c0-12.51 9.972-22.622 22.238-23.055l.091-.002a23.27 23.27 0 0 1 1.707.007c.023.001.046-.002.069-.001a7.489 7.489 0 0 0 7.612-6.256 81.787 81.787 0 0 1 12.798-32.168c10.324 22.929 33.407 38.43 59.433 38.43h100.3a23.322 23.322 0 0 1 10.702 3.214c.058.035.12.058.179.091a22.997 22.997 0 0 1 11.11 19.739c0 12.724-10.352 23.075-23.076 23.075-.316 0-.63-.013-.943-.025-3.773-.135-7.075 2.53-7.699 6.257-6.797 40.644-41.771 68.821-81.402 68.821-39.936.001-74.653-28.466-81.402-68.82zm80.036 107.263c-14.676-.734-26.642-12.15-28.144-26.708-.011-.109-.017-.22-.027-.33-.03-.324-.055-.65-.074-.977 9.877 3.152 20.176 4.572 29.613 4.572 9.615 0 19.997-1.47 29.898-4.665-.907 16.334-14.91 28.925-31.266 28.108zm67.509-37.299h-16.057a97.156 97.156 0 0 0 13.253-9.505c15.872-13.566 26.969-31.859 31.665-52.012 13.941-1.821 25.533-11.214 30.505-23.902a34.564 34.564 0 0 0 3.129 11.19c-18.672 9.368-31.055 28.793-31.055 50.16v36.159c-8.336-7.51-19.362-12.09-31.44-12.09zm46.441 14.365v-38.434c0-16.689 10.31-31.77 25.523-38.015 4.982 4.068 10.981 6.624 16.979 7.505 1.732 7.235 4.459 14.302 7.752 20.531v7.338c0 22.648-18.425 41.074-41.073 41.074h-9.181zm218.625 90.885h-180.45v-55.301c0-16.996 13.828-30.823 30.824-30.823h18.397c.276 22.147 18.382 40.363 40.876 40.363 22.237 0 40.596-17.936 40.877-40.363h18.652c16.996 0 30.823 13.827 30.823 30.823v55.301zM497 340.325h-9.182c-22.648 0-41.073-18.426-41.073-41.074v-7.338c3.342-6.322 6.042-13.388 7.752-20.531a34.824 34.824 0 0 0 16.259-6.956c.239-.185.486-.357.72-.548C486.69 270.122 497 285.202 497 301.891z" fill="#f69000" opacity="1" data-original="#f69000"></path><path d="M128.12 296.416c14.68 0 26.623-11.943 26.623-26.623 0-4.143-3.358-7.5-7.5-7.5s-7.5 3.357-7.5 7.5c0 6.409-5.214 11.623-11.623 11.623s-11.624-5.214-11.624-11.623c0-4.143-3.358-7.5-7.5-7.5s-7.5 3.357-7.5 7.5c.001 14.679 11.944 26.623 26.624 26.623zM84.168 217.564a7.5 7.5 0 0 0-7.5 7.5v16.582c0 4.143 3.358 7.5 7.5 7.5s7.5-3.357 7.5-7.5v-16.582a7.5 7.5 0 0 0-7.5-7.5zM172.072 249.146a7.5 7.5 0 0 0 7.5-7.5v-16.582c0-4.143-3.358-7.5-7.5-7.5s-7.5 3.357-7.5 7.5v16.582a7.5 7.5 0 0 0 7.5 7.5z" fill="#f69000" opacity="1" data-original="#f69000"></path></g></svg>