<svg xmlns="http://www.w3.org/2000/svg" version="1.1" xmlns:xlink="http://www.w3.org/1999/xlink" width="16" height="16" x="0" y="0" viewBox="0 0 512 512" style="enable-background:new 0 0 512 512" xml:space="preserve"><g><path d="m256 481-12.03-13.04c-3.92-4.25-96.34-104.48-118.27-129.56-19.99-22.86-37.86-54.49-44.46-78.71-4.24-15.45-6.39-31.52-6.39-47.73 0-99.63 81.26-180.81 181.14-180.96 99.93.15 181.19 81.32 181.19 180.96 0 16.21-2.15 32.28-6.4 47.75-6.6 24.2-24.47 55.83-44.46 78.69-21.94 25.09-114.35 125.31-118.27 129.56zm-.02-417.27c-81.81.12-148.41 66.61-148.41 148.23 0 13.28 1.76 26.43 5.23 39.09 5.34 19.59 20.78 46.64 37.53 65.81 17.24 19.72 79.18 87.09 105.66 115.86 26.49-28.77 88.42-96.14 105.66-115.86 16.76-19.16 32.19-46.22 37.53-65.78 3.48-12.68 5.24-25.83 5.24-39.11.01-81.63-66.59-148.12-148.44-148.24z" fill="#000000" opacity="1" data-original="#000000"></path><path d="M256 301.82c-51.07 0-92.61-41.45-92.61-92.41S204.94 117 256 117s92.61 41.45 92.61 92.41-41.54 92.41-92.61 92.41zm0-152.08c-33.02 0-59.88 26.77-59.88 59.68S222.98 269.1 256 269.1s59.88-26.77 59.88-59.68-26.86-59.68-59.88-59.68z" fill="#000000" opacity="1" data-original="#000000"></path></g></svg>