<svg xmlns="http://www.w3.org/2000/svg" version="1.1" xmlns:xlink="http://www.w3.org/1999/xlink" width="512" height="512" x="0" y="0" viewBox="0 0 512 512" style="enable-background:new 0 0 512 512" xml:space="preserve" class=""><g><path d="M506.657 297.429c-9.734-39.957-33.406-75.239-66.654-99.346-31.649-22.947-70.186-34.566-108.96-32.959-17.873-38.357-48.992-68.665-88.151-85.679a7.588 7.588 0 0 0-6.047 13.917c37.248 16.183 66.529 45.529 82.451 82.631a159.904 159.904 0 0 1 8.396 25.146 159.088 159.088 0 0 1 1.562 7.152l.001.005c7.596 38.77.449 78.75-20.125 112.577-19.45 31.978-49.302 55.831-84.543 67.709a123.414 123.414 0 0 1-4.879-13.055c-.073-.234-.146-.468-.217-.703a125.664 125.664 0 0 1-1.196-4.155l-.027-.105c66.282-22.246 106.367-91.261 91.887-160.414v-.003a139.084 139.084 0 0 0-1.009-4.493 139.993 139.993 0 0 0-10.942-29.77l-.031-.058a6.62 6.62 0 0 0-.099-.186c-13.927-27.522-37.042-49.929-65.123-63.108-13.462-6.318-27.83-10.383-42.475-12.136l53.893-50.094a7.588 7.588 0 0 0 1.134-9.786l-.036-.053-.002-.003-24.914-37.103A7.588 7.588 0 0 0 214.253 0h-80.75a7.59 7.59 0 0 0-6.299 3.357l-24.953 37.161a7.587 7.587 0 0 0 1.134 9.786l53.888 50.09a138.502 138.502 0 0 0-16.349 2.947C66.337 121.512 20.439 196.977 38.608 271.564c7.491 30.75 25.422 58.268 50.49 77.487 23.031 17.657 51.227 27.745 80.023 28.732.138.595.278 1.185.42 1.772.338 1.388.696 2.766 1.066 4.138.086.318.178.636.265.954.302 1.097.613 2.189.935 3.275a177.19 177.19 0 0 0 2.943 9.021c-33.369.169-66.242-10.284-93.569-29.997-30.499-22.002-52.206-54.272-61.12-90.865-8.898-36.525-4.499-75.102 12.389-108.625 16.701-33.153 44.553-59.474 78.427-74.114a7.587 7.587 0 0 0-6.02-13.928C67.726 95.463 37.199 124.306 18.9 160.63.392 197.371-4.43 239.648 5.32 279.673c9.769 40.1 33.559 75.464 66.985 99.578 29.667 21.402 65.306 32.869 101.534 32.868 2.358 0 4.719-.063 7.081-.16C209.399 472.938 271.184 512.001 338.103 512c13.553 0 27.32-1.603 41.059-4.95 92.943-22.642 150.137-116.677 127.495-209.621zm-184.563 31.329c20.906-34.372 29.15-74.547 23.602-114.089 24.688 1.53 48.747 10.541 68.456 25.813 22.379 17.341 37.757 41.079 44.474 68.649 16.19 66.459-24.706 133.698-91.165 149.888-32.193 7.844-65.514 2.68-93.825-14.539-17.523-10.658-31.823-25.147-42.04-42.274 37.684-13.255 69.584-39.06 90.498-73.448zm-106.872 26.804c-3.876-27.61 1.62-55.566 15.91-79.892 14.952-25.453 38.044-44.434 65.608-54.135 8.127 58.139-26.154 114.502-81.518 134.027zM137.546 15.173h72.662l14.727 21.932H122.82l14.726-21.932zm-9.752 37.105h92.166l-46.083 42.835-46.083-42.835zm38.473 310.165c-24.463-1.505-48.31-10.385-67.936-25.433-22.655-17.369-38.208-41.242-44.979-69.038-16.19-66.458 24.706-133.698 91.165-149.889 27.796-6.772 56.148-3.94 81.99 8.187 22.39 10.507 41.219 27.599 53.824 48.632-38.93 13.69-71.493 40.627-92.36 76.648-19.593 33.822-27.087 72.624-21.704 110.893zm209.304 129.865a158.026 158.026 0 0 1-37.467 4.517c-62.996-.005-121.013-37.948-145.81-96.643-.271-.643-.542-1.285-.805-1.931-.106-.261-.208-.524-.313-.785-.323-.806-.643-1.614-.952-2.426l-.136-.365a155.39 155.39 0 0 1-1.038-2.815l-.032-.091a155.849 155.849 0 0 1-1.058-3.063l-.006-.017a157.863 157.863 0 0 1-1.008-3.126l-.067-.223a160.85 160.85 0 0 1-.877-2.927c-.092-.32-.178-.643-.269-.965-.209-.74-.418-1.48-.616-2.223a157.169 157.169 0 0 1-.832-3.262c-.27-1.107-.523-2.216-.768-3.326-.095-.432-.188-.874-.281-1.315-.107-.505-.21-1.01-.312-1.515-.067-.332-.134-.659-.201-.998-.009-.046-.023-.089-.032-.134-7.33-37.585-.891-76.201 18.41-109.52 19.4-33.49 49.875-58.373 86.283-70.634a125.01 125.01 0 0 1 6.32 18.01c-31.829 10.663-58.509 32.268-75.652 61.451-17.646 30.037-23.34 65.006-16.228 98.962l.001.007.01.048c.126.601.254 1.201.388 1.801a123.46 123.46 0 0 0 1.561 6.317c.081.298.169.595.252.893.264.946.535 1.889.817 2.826.085.283.174.564.262.846a147.145 147.145 0 0 0 1.143 3.543c.381 1.131.777 2.255 1.186 3.372l.044.12c10.804 29.436 31.08 54.189 58.267 70.725 22.086 13.433 46.886 20.329 72.093 20.328 11.055 0 22.192-1.327 33.208-4.011 74.587-18.17 120.485-93.635 102.315-168.222-7.538-30.941-24.801-57.585-49.923-77.051-23.113-17.909-51.562-28.169-80.59-29.164a174.55 174.55 0 0 0-5.635-19.172c33.493-.2 66.498 10.367 93.874 30.216 30.337 21.995 51.935 54.19 60.819 90.653 20.66 84.816-31.531 170.627-116.345 191.289z" fill="#f69000" opacity="1" data-original="#f69000" class=""></path></g></svg>