<svg xmlns="http://www.w3.org/2000/svg" version="1.1" xmlns:xlink="http://www.w3.org/1999/xlink" width="16" height="16" x="0" y="0" viewBox="0 0 682.667 682.667" style="enable-background:new 0 0 512 512" xml:space="preserve" class="hovered-paths"><g><defs><clipPath id="a" clipPathUnits="userSpaceOnUse"><path d="M0 512h512V0H0Z" fill="#000000" opacity="1" data-original="#000000"></path></clipPath></defs><g clip-path="url(#a)" transform="matrix(1.33333 0 0 -1.33333 0 682.667)"><path d="M0 0h-402.006c-22.09 0-39.997 17.907-39.997 39.997v402.006c0 22.09 17.907 39.997 39.997 39.997H0c22.09 0 39.997-17.907 39.997-39.998V39.997C39.997 17.907 22.09 0 0 0Z" style="stroke-width:30;stroke-linecap:round;stroke-linejoin:round;stroke-miterlimit:10;stroke-dasharray:none;stroke-opacity:1" transform="translate(457.003 15)" fill="none" stroke="#000000" stroke-width="30" stroke-linecap="round" stroke-linejoin="round" stroke-miterlimit="10" stroke-dasharray="none" stroke-opacity="" data-original="#000000" class="hovered-path"></path><path d="M0 0h481" style="stroke-width:30;stroke-linecap:round;stroke-linejoin:round;stroke-miterlimit:10;stroke-dasharray:none;stroke-opacity:1" transform="translate(15 376)" fill="none" stroke="#000000" stroke-width="30" stroke-linecap="round" stroke-linejoin="round" stroke-miterlimit="10" stroke-dasharray="none" stroke-opacity="" data-original="#000000" class="hovered-path"></path><path d="M0 0c0-8.284-6.716-15-15-15-8.284 0-15 6.716-15 15 0 8.284 6.716 15 15 15C-6.716 15 0 8.284 0 0" style="fill-opacity:1;fill-rule:nonzero;stroke:none" transform="translate(451 436)" fill="#000000" data-original="#000000"></path><path d="M0 0c0-8.284-6.716-15-15-15-8.284 0-15 6.716-15 15 0 8.284 6.716 15 15 15C-6.716 15 0 8.284 0 0" style="fill-opacity:1;fill-rule:nonzero;stroke:none" transform="translate(391 436)" fill="#000000" data-original="#000000"></path><path d="M0 0c0-8.284-6.716-15-15-15-8.284 0-15 6.716-15 15 0 8.284 6.716 15 15 15C-6.716 15 0 8.284 0 0" style="fill-opacity:1;fill-rule:nonzero;stroke:none" transform="translate(331 436)" fill="#000000" data-original="#000000"></path><path d="M0 0h180" style="stroke-width:30;stroke-linecap:round;stroke-linejoin:round;stroke-miterlimit:10;stroke-dasharray:none;stroke-opacity:1" transform="translate(166 286)" fill="none" stroke="#000000" stroke-width="30" stroke-linecap="round" stroke-linejoin="round" stroke-miterlimit="10" stroke-dasharray="none" stroke-opacity="" data-original="#000000" class="hovered-path"></path><path d="M0 0h300" style="stroke-width:30;stroke-linecap:round;stroke-linejoin:round;stroke-miterlimit:10;stroke-dasharray:none;stroke-opacity:1" transform="translate(106 226)" fill="none" stroke="#000000" stroke-width="30" stroke-linecap="round" stroke-linejoin="round" stroke-miterlimit="10" stroke-dasharray="none" stroke-opacity="" data-original="#000000" class="hovered-path"></path><path d="M0 0c0-16.568 13.432-30 30-30h90c16.568 0 30 13.432 30 30 0 16.568-13.432 30-30 30H30C13.432 30 0 16.568 0 0Z" style="stroke-width:30;stroke-linecap:round;stroke-linejoin:round;stroke-miterlimit:10;stroke-dasharray:none;stroke-opacity:1" transform="translate(181 136)" fill="none" stroke="#000000" stroke-width="30" stroke-linecap="round" stroke-linejoin="round" stroke-miterlimit="10" stroke-dasharray="none" stroke-opacity="" data-original="#000000" class="hovered-path"></path></g></g></svg>