<svg xmlns="http://www.w3.org/2000/svg" version="1.1" xmlns:xlink="http://www.w3.org/1999/xlink" width="16" height="16" x="0" y="0" viewBox="0 0 36 36" style="enable-background:new 0 0 512 512" xml:space="preserve"><g><path d="M18 33H4c-.55 0-1-.45-1-1V4c0-.55.45-1 1-1h12v6c0 1.65 1.35 3 3 3h6v3c0 .55.45 1 1 1s1-.45 1-1v-4s-.01-.04-.01-.06c0-.09-.02-.17-.05-.25 0-.02 0-.05-.01-.07 0-.01-.02-.02-.02-.03a.837.837 0 0 0-.2-.29l-9-9.01c-.09-.09-.19-.15-.29-.2-.01 0-.02-.02-.03-.02-.02 0-.04 0-.07-.01-.08-.03-.16-.04-.25-.05-.02 0-.04-.01-.06-.01H4C2.35 1 1 2.35 1 4v28c0 1.65 1.35 3 3 3h14c.55 0 1-.45 1-1s-.45-1-1-1zm5.59-23H19c-.55 0-1-.45-1-1V4.41zM26 17c-4.96 0-9 4.04-9 9s4.04 9 9 9 9-4.04 9-9-4.04-9-9-9zm6.92 8H27v-5.92A7 7 0 0 1 32.92 25zM26 33c-3.86 0-7-3.14-7-7 0-3.52 2.61-6.43 6-6.92V26c0 .55.45 1 1 1h6.92c-.49 3.39-3.4 6-6.92 6zM5 16c0-.55.45-1 1-1h10c.55 0 1 .45 1 1s-.45 1-1 1H6c-.55 0-1-.45-1-1zm0-5c0-.55.45-1 1-1h7c.55 0 1 .45 1 1s-.45 1-1 1H6c-.55 0-1-.45-1-1z" fill="#000000" opacity="1" data-original="#000000"></path></g></svg>