<svg xmlns="http://www.w3.org/2000/svg" version="1.1" xmlns:xlink="http://www.w3.org/1999/xlink" width="512" height="512" x="0" y="0" viewBox="0 0 512 512" style="enable-background:new 0 0 512 512" xml:space="preserve" class=""><g><path fill="#3c87d0" d="M428.707 476.243H119.05c-10.035 0-18.171-8.135-18.171-18.171V18.171C100.879 8.135 109.014 0 119.05 0h309.657c10.035 0 18.171 8.135 18.171 18.171v439.902c-.001 10.035-8.136 18.17-18.171 18.17z" opacity="1" data-original="#3c87d0"></path><path fill="#c8effe" d="M392.95 512H83.293c-10.035 0-18.171-8.135-18.171-18.171V53.927c0-10.035 8.135-18.171 18.171-18.171H392.95c10.035 0 18.171 8.135 18.171 18.171v439.902c0 10.036-8.135 18.171-18.171 18.171z" opacity="1" data-original="#c8effe" class=""></path><path fill="#b3dafe" d="M392.95 35.757h-37.975c10.035 0 18.171 8.135 18.171 18.171V493.83c0 10.035-8.135 18.171-18.171 18.171h37.975c10.035 0 18.171-8.135 18.171-18.171V53.927c0-10.035-8.135-18.17-18.171-18.17z" opacity="1" data-original="#b3dafe"></path><path fill="#3e5959" d="M365.959 118.27h-99.892a7.187 7.187 0 0 1 0-14.374h99.892a7.187 7.187 0 0 1 0 14.374zM365.959 151.89h-99.892a7.187 7.187 0 0 1 0-14.374h99.892a7.187 7.187 0 0 1 0 14.374zM365.959 185.509h-99.892a7.187 7.187 0 0 1 0-14.374h99.892a7.187 7.187 0 0 1 0 14.374zM365.959 373.137h-92.861a7.187 7.187 0 0 1 0-14.374h92.861a7.187 7.187 0 0 1 0 14.374zM210.177 303.009h-99.892a7.187 7.187 0 0 1 0-14.374h99.892a7.187 7.187 0 0 1 0 14.374zM210.177 269.389h-99.892a7.187 7.187 0 0 1 0-14.374h99.892a7.187 7.187 0 0 1 0 14.374z" opacity="1" data-original="#3e5959"></path><path fill="#ee6161" d="M169.859 74.888v66.757h66.757c0-36.868-29.888-66.757-66.757-66.757z" opacity="1" data-original="#ee6161"></path><path fill="#fea95c" d="M169.859 74.888c-36.869 0-66.757 29.888-66.757 66.757s29.888 66.757 66.757 66.757 66.757-29.888 66.757-66.757h-66.757z" opacity="1" data-original="#fea95c"></path><path fill="#ee6161" d="M368.354 318.3H248.343a4.791 4.791 0 0 1-4.791-4.791v-68.993a4.791 4.791 0 0 1 4.791-4.791h120.011a4.791 4.791 0 0 1 4.791 4.791v68.993a4.791 4.791 0 0 1-4.791 4.791z" opacity="1" data-original="#ee6161"></path><path fill="#fe7701" d="M128.883 460.612h-20.994a4.791 4.791 0 0 1-4.791-4.791V351.016a4.791 4.791 0 0 1 4.791-4.791h20.994a4.791 4.791 0 0 1 4.791 4.791v104.805a4.791 4.791 0 0 1-4.791 4.791z" opacity="1" data-original="#fe7701" class=""></path><path fill="#fe9738" d="M185.924 460.612H164.93a4.791 4.791 0 0 1-4.791-4.791v-77.306a4.791 4.791 0 0 1 4.791-4.791h20.994a4.791 4.791 0 0 1 4.791 4.791v77.306a4.791 4.791 0 0 1-4.791 4.791z" opacity="1" data-original="#fe9738" class=""></path><path fill="#fea95c" d="M242.966 460.612h-20.994a4.791 4.791 0 0 1-4.791-4.791v-43.046a4.791 4.791 0 0 1 4.791-4.791h20.994a4.791 4.791 0 0 1 4.791 4.791v43.046a4.791 4.791 0 0 1-4.791 4.791z" opacity="1" data-original="#fea95c"></path><path fill="#3e5959" d="M365.959 408.448h-92.861a7.187 7.187 0 0 1 0-14.374h92.861a7.187 7.187 0 0 1 0 14.374zM365.959 443.76h-92.861a7.187 7.187 0 0 1 0-14.374h92.861a7.187 7.187 0 0 1 0 14.374z" opacity="1" data-original="#3e5959"></path></g></svg>