<svg xmlns="http://www.w3.org/2000/svg" version="1.1" xmlns:xlink="http://www.w3.org/1999/xlink" width="16" height="16" x="0" y="0" viewBox="0 0 512 512" style="enable-background:new 0 0 512 512" xml:space="preserve" class=""><g><path d="M382.2 46.4c5.3 2.3 7.2 6.5 7.1 12.1-.2 8.3 0 16.6 0 25 0 9.2-3.1 12.3-12.2 12.3h-66.5c2.6 4.1 5.3 7.3 6.9 10.9 4 9.4 7.6 18.9 11 28.5.9 2.6 1.8 3.7 4.7 3.6 15-.2 30-.1 45-.1 8.5 0 11.6 3.1 11.6 11.6v26.2c0 8.3-3.3 11.5-11.7 11.5-14.7 0-29.5.1-44.2-.1-2.6 0-3.7.6-4.2 3.4-4.8 26.1-16.8 48.2-37 65.6-18.2 15.7-39.5 25-62.8 30-6.4 1.4-12.8 2.4-19.8 3.7 1.4 1.5 2.5 2.9 3.6 4.1 45.9 49.8 88.9 102 131.9 154.2 2.7 3.3 4.2 6.6 2.1 10.9-2.1 4.2-5.5 5.7-10 5.7-18.6-.1-37.1-.1-55.7 0-4.2 0-7.1-1.8-9.8-4.9-26.6-31.4-53.1-63-80.1-94.1-20.7-23.8-41.9-47-63.2-70.3-4.4-4.9-6.8-9.7-6.5-16.4.5-10.1.1-20.2.1-30.3 0-7.8 3.7-11.4 11.5-11.6 16.9-.3 33.9 0 50.7-1 19.1-1.2 37.4-6 53.2-17.8 9.7-7.2 16.5-16.5 20.1-28.1.3-.9.4-1.8.6-3.1H135.2c-9.8 0-12.8-2.9-12.8-12.6v-25.4c.1-8.2 3.2-11.4 11.5-11.4h120.8c-1.1-1.9-1.8-3.4-2.6-4.8-6.7-10.4-16.5-16.9-27.8-21.2-16.4-6.3-33.7-7.6-51.1-7.6h-37.7c-10 0-13.1-3.1-13.1-13.3 0-11.1.2-22.1-.1-33.2-.1-5.7 1.6-9.8 6.8-12.3h253.1z" fill="#000000" opacity="1" data-original="#000000" class=""></path></g></svg>