<svg xmlns="http://www.w3.org/2000/svg" version="1.1" xmlns:xlink="http://www.w3.org/1999/xlink" width="16" height="16" x="0" y="0" viewBox="0 0 512 512" style="enable-background:new 0 0 512 512" xml:space="preserve" class=""><g><path d="M76 240c12.11 0 23.11-4.816 31.207-12.625l44.148 22.074A44.86 44.86 0 0 0 151 255c0 24.813 20.188 45 45 45s45-20.188 45-45a44.746 44.746 0 0 0-4.398-19.39l60.007-60.008A44.746 44.746 0 0 0 316 180c24.813 0 45-20.188 45-45 0-4.688-.723-9.207-2.059-13.457l52.133-39.098A44.726 44.726 0 0 0 436 90c24.813 0 45-20.188 45-45S460.812 0 436 0s-45 20.188-45 45c0 4.688.723 9.207 2.059 13.457l-52.133 39.098A44.726 44.726 0 0 0 316 90c-24.813 0-45 20.188-45 45a44.746 44.746 0 0 0 4.398 19.39l-60.007 60.008A44.746 44.746 0 0 0 196 210c-12.11 0-23.11 4.816-31.207 12.625l-44.148-22.074A44.86 44.86 0 0 0 121 195c0-24.813-20.188-45-45-45s-45 20.188-45 45 20.188 45 45 45zM436 30c8.27 0 15 6.73 15 15s-6.73 15-15 15-15-6.73-15-15 6.73-15 15-15zm-120 90c8.27 0 15 6.73 15 15s-6.73 15-15 15-15-6.73-15-15 6.73-15 15-15zM196 240c8.27 0 15 6.73 15 15s-6.73 15-15 15-15-6.73-15-15 6.73-15 15-15zM76 180c8.27 0 15 6.73 15 15s-6.73 15-15 15-15-6.73-15-15 6.73-15 15-15zm0 0" fill="#000000" opacity="1" data-original="#000000" class=""></path><path d="M497 482h-16V165c0-8.285-6.715-15-15-15h-60c-8.285 0-15 6.715-15 15v317h-30V255c0-8.285-6.715-15-15-15h-60c-8.285 0-15 6.715-15 15v227h-30V375c0-8.285-6.715-15-15-15h-60c-8.285 0-15 6.715-15 15v107h-30V315c0-8.285-6.715-15-15-15H46c-8.285 0-15 6.715-15 15v167H15c-8.285 0-15 6.715-15 15s6.715 15 15 15h482c8.285 0 15-6.715 15-15s-6.715-15-15-15zm-76-302h30v302h-30zm-120 90h30v212h-30zM181 390h30v92h-30zM61 330h30v152H61zm0 0" fill="#000000" opacity="1" data-original="#000000" class=""></path></g></svg>