<svg xmlns="http://www.w3.org/2000/svg" version="1.1" xmlns:xlink="http://www.w3.org/1999/xlink" width="16" height="16" x="0" y="0" viewBox="0 0 28 28" style="enable-background:new 0 0 512 512" xml:space="preserve" class=""><g><switch><g><path d="M18 9c-.55 0-1-.45-1-1V7c0-1.66-1.34-3-3-3s-3 1.34-3 3v1c0 .55-.45 1-1 1s-1-.45-1-1V7c0-2.76 2.24-5 5-5s5 2.24 5 5v1c0 .55-.45 1-1 1zM14 17c-2.76 0-5-2.24-5-5 0-.55.45-1 1-1s1 .45 1 1c0 1.66 1.34 3 3 3s3-1.34 3-3c0-.55.45-1 1-1s1 .45 1 1c0 2.76-2.24 5-5 5z" fill="#000000" opacity="1" data-original="#000000" class=""></path><path d="M19 26H9c-3.31 0-6-2.69-6-6L4.01 9.9A2.973 2.973 0 0 1 7 7h14c1.66 0 3 1.34 3 3l1 9.9c.04 3.33-2.62 6.06-5.94 6.1H19zM7 9c-.55 0-1 .45-1 1L5 20.1A3.991 3.991 0 0 0 9 24h10c2.21 0 4-1.79 4-4l-1-9.9c.04-.57-.4-1.06-.97-1.1H21z" fill="#000000" opacity="1" data-original="#000000" class=""></path></g></switch></g></svg>