<svg xmlns="http://www.w3.org/2000/svg" version="1.1" xmlns:xlink="http://www.w3.org/1999/xlink" width="512" height="512" x="0" y="0" viewBox="0 0 512 512" style="enable-background:new 0 0 512 512" xml:space="preserve" class=""><g><circle cx="256" cy="267" r="245" fill="#e5eef9" opacity="1" data-original="#e5eef9"></circle><circle cx="256" cy="267" r="195" fill="#ffffff" opacity="1" data-original="#ffffff"></circle><g fill="#af66da"><path d="M311.877 67.143a206.744 206.744 0 0 0-50.749-7.581 5.01 5.01 0 0 0-5.129 5.006v15.005a4.987 4.987 0 0 0 4.849 4.99 181.83 181.83 0 0 1 44.731 6.782 88.47 88.47 0 0 1 6.298-24.202zM463.494 266.551c-.069-32.409-7.619-63.089-20.99-90.423a88.576 88.576 0 0 1-22.658 10.556C431.781 210.934 438.5 238.195 438.5 267c0 14.39-1.674 28.677-4.981 42.54a4.99 4.99 0 0 0 3.567 5.982l14.496 3.874a5.013 5.013 0 0 0 6.164-3.675A208.391 208.391 0 0 0 463.501 267v-.449z" fill="#af66da" opacity="1" data-original="#af66da"></path></g><path fill="#fe3d97" d="M314.793 142.125C296.956 133.712 277.029 129 256 129c-76.215 0-138 61.785-138 138s61.785 138 138 138 138-61.785 138-138c0-29.951-9.545-57.67-25.754-80.29-23.271-7.024-42.521-23.314-53.453-44.585z" opacity="1" data-original="#fe3d97"></path><path fill="#e41e7f" d="M174 267c0-66.622 47.21-122.215 110-135.155A138.564 138.564 0 0 0 256 129c-76.215 0-138 61.785-138 138s61.785 138 138 138c9.594 0 18.958-.981 28-2.845-62.79-12.94-110-68.533-110-135.155z" opacity="1" data-original="#e41e7f"></path><path fill="#fe7d43" d="M256.16 474.5H256a208.378 208.378 0 0 1-48.644-5.736 5.012 5.012 0 0 1-3.677-6.162l3.868-14.498a4.992 4.992 0 0 1 5.982-3.569 183.337 183.337 0 0 0 42.335 4.965h.192v12.721l.264 12.276z" opacity="1" data-original="#fe7d43"></path><path fill="#af66da" d="M256.056 462.218v.002-.22z" opacity="1" data-original="#af66da"></path><path fill="#fe7d43" d="m282.471 467.714-1.944-14.878a4.991 4.991 0 0 1 4.172-5.578 181.342 181.342 0 0 0 36.675-9.813 4.99 4.99 0 0 1 6.4 2.747l5.751 13.86a5.012 5.012 0 0 1-2.831 6.594 206.368 206.368 0 0 1-42.477 11.365 5.011 5.011 0 0 1-5.746-4.297z" opacity="1" data-original="#fe7d43"></path><path fill="#feb137" d="M171.918 456.754a207.406 207.406 0 0 1-38.06-21.995 5.012 5.012 0 0 1-1.029-7.101l9.138-11.901a4.99 4.99 0 0 1 6.894-.998 182.403 182.403 0 0 0 32.885 19.007 4.99 4.99 0 0 1 2.579 6.47l-5.742 13.862a5.013 5.013 0 0 1-6.665 2.656z" opacity="1" data-original="#feb137"></path><path fill="#fe3d97" d="m357.26 442.321-7.516-12.986a4.992 4.992 0 0 1 1.706-6.754 183.388 183.388 0 0 0 30.127-23.154 4.991 4.991 0 0 1 6.966.091l10.611 10.609a5.013 5.013 0 0 1-.094 7.174 208.354 208.354 0 0 1-34.842 26.777 5.012 5.012 0 0 1-6.958-1.757z" opacity="1" data-original="#fe3d97"></path><path fill="#feb137" d="M105.751 410.114a208.334 208.334 0 0 1-26.784-34.823 5.012 5.012 0 0 1 1.755-6.957l12.983-7.521a4.99 4.99 0 0 1 6.754 1.704 183.317 183.317 0 0 0 23.16 30.109 4.991 4.991 0 0 1-.088 6.966l-10.605 10.615a5.014 5.014 0 0 1-7.175-.093z" opacity="1" data-original="#feb137"></path><path fill="#fe3d97" d="m416.614 390.228-11.898-9.142a4.991 4.991 0 0 1-.996-6.894 182.325 182.325 0 0 0 19.019-32.881 4.99 4.99 0 0 1 6.471-2.577l13.861 5.747a5.012 5.012 0 0 1 2.655 6.667 207.333 207.333 0 0 1-22.011 38.055 5.012 5.012 0 0 1-7.101 1.025z" opacity="1" data-original="#fe3d97"></path><path fill="#feb137" d="M62.393 341.792a206.42 206.42 0 0 1-11.386-42.46 5.012 5.012 0 0 1 4.295-5.749l14.877-1.952a4.991 4.991 0 0 1 5.58 4.169 181.433 181.433 0 0 0 9.83 36.661 4.992 4.992 0 0 1-2.744 6.402l-13.856 5.758a5.013 5.013 0 0 1-6.596-2.829z" opacity="1" data-original="#feb137"></path><path fill="#fe7d43" d="M73.5 267.172h-25V267c0-16.407 1.919-32.706 5.708-48.524a5.011 5.011 0 0 1 6.16-3.68l14.5 3.86a4.99 4.99 0 0 1 3.572 5.979A183.408 183.408 0 0 0 73.5 267zM82.724 195.428l-13.866-5.734a5.012 5.012 0 0 1-2.661-6.664 207.374 207.374 0 0 1 21.973-38.073 5.013 5.013 0 0 1 7.101-1.033l11.907 9.131a4.99 4.99 0 0 1 1.002 6.894 182.346 182.346 0 0 0-18.987 32.897 4.993 4.993 0 0 1-6.469 2.582z" opacity="1" data-original="#fe7d43"></path><g fill="#fe3d97"><path d="M123.331 134.609 112.71 124.01a5.013 5.013 0 0 1 .087-7.174 208.32 208.32 0 0 1 34.807-26.805 5.011 5.011 0 0 1 6.958 1.751l7.529 12.978a4.99 4.99 0 0 1-1.7 6.755 183.362 183.362 0 0 0-30.096 23.178 4.987 4.987 0 0 1-6.964-.084zM184.035 93.887l-5.766-13.853a5.012 5.012 0 0 1 2.824-6.597 206.383 206.383 0 0 1 42.453-11.411 5.014 5.014 0 0 1 5.752 4.291l1.961 14.876a4.992 4.992 0 0 1-4.165 5.583 181.399 181.399 0 0 0-36.655 9.853 4.995 4.995 0 0 1-6.404-2.742z" fill="#fe3d97" opacity="1" data-original="#fe3d97"></path></g><path fill="#ffffff" d="M311 251.483h-39.483V212a5 5 0 0 0-5-5h-21.034a5 5 0 0 0-5 5v39.483H201a5 5 0 0 0-5 5v21.034a5 5 0 0 0 5 5h39.483V322a5 5 0 0 0 5 5h21.034a5 5 0 0 0 5-5v-39.483H311a5 5 0 0 0 5-5v-21.034a5 5 0 0 0-5-5z" opacity="1" data-original="#ffffff"></path><circle cx="394" cy="101.5" r="89" fill="#ffffff" opacity="1" data-original="#ffffff"></circle><path fill="#e5eef9" d="M347 101.5c0-41.918 28.982-77.062 68-86.501a89.213 89.213 0 0 0-21-2.499c-49.153 0-89 39.847-89 89s39.847 89 89 89c7.235 0 14.266-.87 21-2.499-39.018-9.439-68-44.583-68-86.501z" opacity="1" data-original="#e5eef9"></path><path fill="#01c0fa" d="M394 203c-55.967 0-101.5-45.533-101.5-101.5S338.033 0 394 0s101.5 45.533 101.5 101.5S449.967 203 394 203zm0-178c-42.182 0-76.5 34.318-76.5 76.5S351.818 178 394 178s76.5-34.318 76.5-76.5S436.182 25 394 25z" opacity="1" data-original="#01c0fa"></path><path fill="#0078c8" d="m440.973 97.301-67.874-39.187c-3.233-1.866-7.273.467-7.273 4.199v78.374c0 3.733 4.041 6.066 7.273 4.199l67.874-39.187c3.233-1.866 3.233-6.532 0-8.398z" opacity="1" data-original="#0078c8"></path><path fill="#0268b4" d="m391 68.449-17.901-10.335c-3.233-1.866-7.273.467-7.273 4.199v78.374c0 3.733 4.041 6.066 7.273 4.199L391 134.551z" opacity="1" data-original="#0268b4"></path></g></svg>