<svg xmlns="http://www.w3.org/2000/svg" version="1.1" xmlns:xlink="http://www.w3.org/1999/xlink" width="16" height="16" x="0" y="0" viewBox="0 0 24 24" style="enable-background:new 0 0 512 512" xml:space="preserve" class=""><g><path fill="#000000" fill-rule="evenodd" d="M9.667 3.5a3.532 3.532 0 1 0 0 7.063 3.532 3.532 0 0 0 0-7.063zM4.636 7.032a5.032 5.032 0 1 1 10.063 0 5.032 5.032 0 0 1-10.063 0zm10.8-2.564a.75.75 0 0 1 .75-.75 4.13 4.13 0 1 1-.83 8.178.75.75 0 0 1 .3-1.47 2.63 2.63 0 1 0 .53-5.208.75.75 0 0 1-.75-.75zm1.001 9.34a.75.75 0 0 1 .75-.75 4.75 4.75 0 0 1 4.75 4.75v.725a1.75 1.75 0 0 1-1.75 1.75h-.877a.75.75 0 1 1 0-1.5h.877a.25.25 0 0 0 .25-.25v-.725a3.25 3.25 0 0 0-3.25-3.25.75.75 0 0 1-.75-.75zM2.062 19a5.75 5.75 0 0 1 5.75-5.75h3.713a5.75 5.75 0 0 1 5.75 5.75v.25a2.75 2.75 0 0 1-2.75 2.75H4.812a2.75 2.75 0 0 1-2.75-2.75zm5.75-4.25A4.25 4.25 0 0 0 3.562 19v.25c0 .69.56 1.25 1.25 1.25h9.713c.69 0 1.25-.56 1.25-1.25V19a4.25 4.25 0 0 0-4.25-4.25z" clip-rule="evenodd" opacity="1" data-original="#000000" class=""></path></g></svg>