<svg xmlns="http://www.w3.org/2000/svg" version="1.1" xmlns:xlink="http://www.w3.org/1999/xlink" width="512" height="512" x="0" y="0" viewBox="0 0 512 512" style="enable-background:new 0 0 512 512" xml:space="preserve" class=""><g><path fill="#dbdbdb" d="M384.2 187.3v75.9c0 56-30.3 107.6-79.2 134.9-24.5 13.7-50.9 31.7-73.4 54.7-22.5-22.9-48.9-41-73.4-54.7C109.3 370.8 79 319.2 79 263.2V112.8l152.6-54.1 126.7 44.9" opacity="1" data-original="#dbdbdb"></path><path fill="#eaeaea" d="M231.7 452.7c-22.5-22.9-48.9-41-73.4-54.7-48.9-27.3-79.2-78.9-79.2-134.9V112.8l152.6-54.1z" opacity="1" data-original="#eaeaea"></path><path fill="#47b574" d="M480.6 7.3v109.3s-39.3 15.4-96.4 70.7c-37.5 36.4-82.8 90.1-129.6 168.2L109.1 196.2s26.4-22.8 54-50.4c37.5 37.5 92 90.4 92 90.4s30.5-61.1 103.2-132.6c32.2-31.5 72.6-65.1 122.3-96.3zM39.2 104.6c-4.3 0-7.8 3.5-7.8 7.8s3.5 7.8 7.8 7.8 7.8-3.5 7.8-7.8-3.4-7.8-7.8-7.8zm0 119.7c-4.3 0-7.8 3.5-7.8 7.8s3.5 7.8 7.8 7.8 7.8-3.5 7.8-7.8c.1-4.3-3.4-7.8-7.8-7.8zm78-168.6c.9 0 1.8-.1 2.6-.5 4.1-1.5 6.2-5.9 4.8-10s-5.9-6.2-10-4.8-6.2 5.9-4.8 10c1.2 3.3 4.2 5.3 7.4 5.3zm223-1.6c.9.3 1.7.5 2.6.5 3.2 0 6.2-2 7.4-5.2 1.5-4.1-.7-8.6-4.8-10-4.1-1.5-8.6.7-10 4.8-1.4 4 .7 8.4 4.8 9.9zM230 15.7c.9 0 1.8-.1 2.6-.5 4.1-1.4 6.2-5.9 4.8-10s-5.9-6.2-10-4.8c-4.1 1.5-6.2 5.9-4.8 10 1.2 3.3 4.2 5.3 7.4 5.3zm-87.5 412.4c-3.8-2.1-8.6-.8-10.7 3s-.8 8.6 3 10.7c1.2.7 2.5 1 3.8 1 2.7 0 5.4-1.4 6.8-4 2.3-3.8.9-8.5-2.9-10.7zm281.6-207.2c-4.3 0-7.8 3.5-7.8 7.8s3.5 7.8 7.8 7.8 7.8-3.5 7.8-7.8-3.5-7.8-7.8-7.8zm-14.3 117.8c-3.9-1.8-8.6-.1-10.4 3.9-1.8 3.9-.1 8.6 3.9 10.4 1.1.5 2.2.7 3.2.7 3 0 5.8-1.7 7.1-4.6 1.9-3.9.1-8.6-3.8-10.4zm-355 3.2c-3.9 1.9-5.6 6.5-3.7 10.5 1.3 2.8 4.2 4.5 7.1 4.5 1.1 0 2.3-.2 3.4-.8 3.9-1.9 5.6-6.5 3.7-10.4-1.9-4-6.6-5.7-10.5-3.8zm171.3 156.8c-3 3.1-3 8.1.1 11.1 1.5 1.5 3.5 2.2 5.5 2.2s4.1-.8 5.6-2.4c3-3.1 3-8.1-.1-11.1-3.2-3-8.1-2.9-11.1.2zm97.5-72.2c-3.7 2.2-5 7-2.8 10.7 1.5 2.5 4.1 3.9 6.8 3.9 1.3 0 2.7-.3 4-1.1 3.7-2.2 5-7 2.8-10.7s-7-5-10.8-2.8z" opacity="1" data-original="#47b574"></path></g></svg>