<svg xmlns="http://www.w3.org/2000/svg" version="1.1" xmlns:xlink="http://www.w3.org/1999/xlink" width="16" height="16" x="0" y="0" viewBox="0 0 48 48" style="enable-background:new 0 0 512 512" xml:space="preserve" class=""><g><path d="M36.902 30.242c-.69 0-1.25.56-1.25 1.25v7.531c0 .965-.785 1.75-1.75 1.75H7.674c-.965 0-1.75-.785-1.75-1.75V11.798a4.742 4.742 0 0 0 1.75.338h26.229c.965 0 1.75.785 1.75 1.75v4.979a1.25 1.25 0 0 0 2.5 0v-4.979a4.255 4.255 0 0 0-4.25-4.25h-.387V8.431c0-2.042-1.906-3.705-4.25-3.705H7.674c-2.343 0-4.25 1.662-4.25 3.705 0 .104.026.202.035.303-.009.06-.035.113-.035.175v30.115a4.255 4.255 0 0 0 4.25 4.25h26.229a4.254 4.254 0 0 0 4.25-4.25v-7.531a1.252 1.252 0 0 0-1.251-1.251zM7.674 7.227h21.592c.933 0 1.75.563 1.75 1.205v1.205H7.674c-.932 0-1.75-.563-1.75-1.205s.818-1.205 1.75-1.205zm39.24 14.507-5.983-2.628a1.25 1.25 0 0 0-1.005 2.289l2.802 1.23c-4.576 1.419-13.535 3.841-19.015 2.979a1.25 1.25 0 1 0-.388 2.469c.916.145 1.907.209 2.948.209 6.19 0 14.109-2.27 17.937-3.496l-1.569 3.573a1.25 1.25 0 1 0 2.29 1.005l2.628-5.984a1.254 1.254 0 0 0-.645-1.646z" fill="#000000" opacity="1" data-original="#000000" class=""></path></g></svg>